<?xml version="1.0" encoding="UTF-8" standalone="no"?>
<!-- Created with Inkscape (http://www.inkscape.org/) -->

<svg
   version="1.1"
   id="svg18"
   width="644"
   height="188.99998"
   viewBox="0 0 644 188.99999"
   sodipodi:docname="CPSG.pdf"
   xmlns:inkscape="http://www.inkscape.org/namespaces/inkscape"
   xmlns:sodipodi="http://sodipodi.sourceforge.net/DTD/sodipodi-0.dtd"
   xmlns="http://www.w3.org/2000/svg"
   xmlns:svg="http://www.w3.org/2000/svg">
  <defs
     id="defs22" />
  <sodipodi:namedview
     id="namedview20"
     pagecolor="#ffffff"
     bordercolor="#000000"
     borderopacity="0.25"
     inkscape:showpageshadow="2"
     inkscape:pageopacity="0.0"
     inkscape:pagecheckerboard="0"
     inkscape:deskcolor="#d1d1d1"
     showgrid="false" />
  <g
     id="g26"
     inkscape:groupmode="layer"
     inkscape:label="Page 1"
     transform="scale(1.3333333)">
    <g
       id="g28"
       inkscape:export-filename="g28.png"
       inkscape:export-xdpi="96"
       inkscape:export-ydpi="96">
      <path
         d="M 343.125,71.25 V 0.75 H 483 v 141 H 343.125 Z M 0,70.5 V 0 H 139.875 V 141 H 0 Z m 136.875,0 V 3 H 3 V 138 H 136.875 Z M 171,120.938 V 101.25 h 39.375 v 39.375 H 171 Z m 33.75,0 V 106.875 H 176.625 V 135 h 28.125 z m -22.5,0 V 112.5 h 16.875 v 16.875 H 182.25 Z M 216,126.563 V 112.5 h 5.625 v 5.625 h 5.625 V 112.5 h 5.625 v 11.25 h 11.25 v -5.625 H 238.5 v -11.25 h 5.625 v 5.625 h 5.625 v 11.25 h 5.625 V 112.5 H 261 V 95.625 h -11.25 v 5.625 h 5.625 v 5.625 H 249.75 V 101.25 H 238.5 V 95.625 H 227.25 V 78.75 h 16.875 v 5.625 H 238.5 v 11.25 h 5.625 V 90 H 261 v -5.625 h -5.625 V 78.75 H 249.75 V 73.125 H 238.5 v -11.25 h 5.625 V 56.25 H 238.5 v -5.625 h -5.625 v 11.25 h -5.625 v -11.25 h -5.625 v 11.25 H 193.5 V 67.5 h 5.625 v 5.625 h -11.25 v 5.625 h -11.25 V 95.625 H 171 V 67.5 h 11.25 v 5.625 h 5.625 V 61.875 H 182.25 V 56.25 h -5.625 v 5.625 H 171 V 56.25 h 5.625 V 50.625 H 171 V 45 h 28.125 v 5.625 h 5.625 V 45 h 16.875 V 39.375 H 216 v -11.25 h 5.625 V 22.5 H 216 v -5.625 h 16.875 V 22.5 h -5.625 v 11.25 h 5.625 v -5.625 h 11.25 v 11.25 H 238.5 v 11.25 h 5.625 V 45 h 5.625 V 22.5 H 238.5 V 11.25 h 5.625 v 5.625 h 11.25 V 11.25 H 249.75 V 5.625 H 261 V 0 h 5.625 V 16.875 H 261 V 22.5 h 5.625 v 5.625 H 261 v 5.625 h 5.625 V 45 h 5.625 v 11.25 h 5.625 V 45 h 5.625 v 11.25 h 11.25 v 5.625 h -16.875 v 11.25 H 283.5 V 67.5 h 5.625 v 5.625 h 5.625 V 67.5 H 306 v -5.625 h -5.625 V 45 H 306 v 11.25 h 5.625 V 73.125 H 306 v 5.625 h 5.625 V 90 H 306 v -5.625 h -5.625 v -11.25 h -5.625 v 11.25 h -5.625 v 11.25 h 5.625 V 90 h 5.625 v 5.625 h -5.625 v 5.625 h 16.875 v 5.625 H 306 v 5.625 h 5.625 v 28.125 h -33.75 v -11.25 h 11.25 V 123.75 H 283.5 v -5.625 h -5.625 v 5.625 h -5.625 v -5.625 H 261 v 11.25 h 11.25 V 135 H 261 v -5.625 h -5.625 V 135 h -5.625 v -5.625 H 238.5 V 135 h 5.625 v 5.625 h -11.25 v -11.25 h -5.625 v 11.25 H 216 Z m 90,2.812 v -5.625 h -5.625 v 5.625 H 294.75 V 135 H 306 Z M 294.75,115.313 V 112.5 h 5.625 v -5.625 h -5.625 v -5.625 h -5.625 v 5.625 h 5.625 v 5.625 h -5.625 v 5.625 h 5.625 z M 283.5,104.063 V 95.625 H 266.625 V 112.5 H 283.5 Z m -11.25,0 v -2.813 h 5.625 v 5.625 h -5.625 z m 5.625,-16.875 V 84.375 H 272.25 V 78.75 h 5.625 v -5.625 h -5.625 v 5.625 h -5.625 v 5.625 h 5.625 V 90 h 5.625 z M 261,75.938 v -2.813 h -5.625 V 78.75 H 261 Z m 28.125,0 V 73.125 H 283.5 v 5.625 h 5.625 z M 272.25,61.875 V 56.25 h -5.625 V 45 H 261 V 33.75 h -5.625 V 45 H 249.75 V 56.25 H 261 v 5.625 H 244.125 V 67.5 H 272.25 Z M 193.5,53.438 v -2.813 h -11.25 v 5.625 h 11.25 z m 22.5,0 V 50.625 H 204.75 V 56.25 H 216 Z m 16.875,-5.625 V 45 h -5.625 v 5.625 h 5.625 z M 227.25,36.563 V 33.75 h -5.625 v 5.625 h 5.625 z m 11.25,0 V 33.75 h -5.625 v 5.625 H 238.5 Z M 261,25.313 V 22.5 h -5.625 v 5.625 H 261 Z M 216,101.25 V 95.625 H 204.75 V 90 h -5.625 v 5.625 h -11.25 V 90 h -5.625 v -5.625 h 5.625 V 90 h 11.25 v -5.625 h 5.625 V 78.75 h 5.625 v 5.625 H 204.75 V 90 H 216 v -5.625 h 5.625 V 90 H 216 v 5.625 h 5.625 v 11.25 H 216 Z m 11.25,2.813 v -2.813 h 5.625 v 5.625 H 227.25 Z M 216,75.938 V 73.125 H 204.75 V 67.5 h 28.125 v 5.625 h -11.25 V 78.75 H 216 Z M 289.125,47.813 V 45 h 5.625 v 5.625 h -5.625 z M 171,19.688 V 0 h 39.375 V 39.375 H 171 Z m 33.75,0 V 5.625 H 176.625 V 33.75 h 28.125 z m -22.5,0 V 11.25 h 16.875 V 28.125 H 182.25 Z m 90,0 V 0 h 39.375 V 39.375 H 272.25 Z m 33.75,0 V 5.625 H 277.875 V 33.75 H 306 Z m -22.5,0 V 11.25 h 16.875 V 28.125 H 283.5 Z M 216,8.438 V 5.625 h 5.625 V 11.25 H 216 Z M 227.25,5.625 V 0 h 5.625 V 11.25 H 227.25 Z M 238.5,2.813 V 0 h 5.625 V 5.625 H 238.5 Z"
         style="fill:#000000;fill-opacity:1;fill-rule:nonzero;stroke:none"
         id="path30" />
    </g>
  </g>
</svg>
