<?xml version="1.0" encoding="UTF-8" standalone="no"?>
<!-- Created with Inkscape (http://www.inkscape.org/) -->

<svg
   version="1.1"
   id="svg189"
   width="81.758675"
   height="141.84271"
   viewBox="0 0 81.758678 141.84272"
   sodipodi:docname="logo-pwr-2016.eps"
   xmlns:inkscape="http://www.inkscape.org/namespaces/inkscape"
   xmlns:sodipodi="http://sodipodi.sourceforge.net/DTD/sodipodi-0.dtd"
   xmlns="http://www.w3.org/2000/svg"
   xmlns:svg="http://www.w3.org/2000/svg">
  <defs
     id="defs193" />
  <sodipodi:namedview
     id="namedview191"
     pagecolor="#ffffff"
     bordercolor="#000000"
     borderopacity="0.25"
     inkscape:showpageshadow="2"
     inkscape:pageopacity="0.0"
     inkscape:pagecheckerboard="0"
     inkscape:deskcolor="#d1d1d1"
     showgrid="false" />
  <g
     id="g197"
     inkscape:groupmode="layer"
     inkscape:label="Page 1"
     transform="matrix(1.3333333,0,0,-1.3333333,-63.881227,553.28371)">
    <g
       id="g199"
       transform="matrix(0.1,0,0,0.1,-78.41108,-85.054249)">
      <path
         d="m 1263.22,5000.17 h 613.19 v -613.26 h -613.19 v 613.26"
         style="fill:#231f20;fill-opacity:1;fill-rule:evenodd;stroke:none"
         id="path371" />
      <path
         d="m 1774.52,4898.78 -379.53,40.06 v -0.73 c 17.15,-7.21 22.11,-27.88 9.06,-41.04 h 370.47 z m -370.47,-450.54 h -1.71 l -37.24,461.07 h 0.87 c 6.43,-17.96 23.69,-22.48 38.08,-12.24 z m 206.77,378.84 c -1.64,-0.79 -3.23,-2.12 -4.47,-3.52 -1.82,-2.2 -7.71,-1.1 -11.06,-2.11 -2.04,-0.61 -3,-1.46 -3.14,-1.09 1.01,2.09 1.73,4.17 3.44,5.79 3.71,3.52 14.92,6 15.23,0.93 z m 163.7,27.87 h -189.47 l 0.01,-26.18 c 4.48,2.38 8.1,4.47 12.92,5.85 3.21,0.9 6.66,1.88 10.06,1.54 4.95,-0.5 6.78,-3.83 6.24,-7.29 4.37,2.34 12.6,3.65 16.56,0.02 3.8,-3.46 4.58,-9.14 3.32,-13.86 -4.42,4.72 -10.1,5.92 -16.11,2.99 -4.5,-2.19 -8.24,-6.08 -10.29,-10.61 1.94,-2.23 8.19,-0.45 10.33,0.66 2.37,1.22 4.44,3.2 7.09,6.08 -0.34,-4.29 -0.85,-8.25 -2.4,-10.36 -2.95,-4.02 -5.89,-4.83 -10.9,-6.58 -3.91,-1.35 -7.87,-3.25 -11.75,-7.18 -3.35,-4.46 -4.2,-12.18 -3.17,-18.72 1.13,-7.21 3.79,-14.81 6.02,-22.27 2.23,-7.47 4.06,-14.81 3.52,-21.53 11.49,-1.86 29.96,10.94 36.45,16.18 7.18,5.8 14.55,12.55 18.11,19.11 2.9,5.34 3.76,16.22 -1.69,24.71 -10.33,16.06 -4.69,41.99 17.17,48.59 13.42,3.92 31.86,0.17 40.14,-14.79 8.07,-14.57 9.94,-30.98 9.69,-48.19 -0.38,-26.35 -1.43,-42.73 3.46,-62.38 2.41,-9.64 6.91,-18.53 14.04,-26.69 -5.59,-6.63 -14.96,-2.08 -22.16,4.06 -10.66,9.1 -19.75,29.64 -25.61,62.67 l -1.13,-4.08 c -0.26,-19.9 2.33,-35.1 6.63,-52.87 4.35,-17.96 10.68,-28.42 26.08,-40.19 -8.46,-7.63 -17.01,-4.34 -24.46,1.34 -14.82,11.28 -21.19,24.11 -27.26,50.02 l -1.11,-1.46 c -1.29,-15.19 0.31,-30.26 5.18,-43.92 4.66,-13.07 13.69,-25.58 25.31,-35.09 -7.89,-7.12 -16.51,-2.41 -23.67,2.78 -10.12,7.34 -25.22,21.52 -30.06,49.31 l -1.27,-1.09 c -0.51,-15.9 0.97,-30.21 4.41,-42.51 3.5,-12.54 14.14,-27.49 24.84,-34.66 -8.9,-7.54 -16.96,-2.92 -23.47,2.1 -17.31,13.32 -28.21,32.14 -32.19,57.14 l -1.55,-0.79 c -1.86,-27.15 -1.74,-56.95 22.59,-74.32 l -9.66,-6.1 5.65,-9.59 c 2.48,-4.22 25,7.31 34.16,0 3.68,-2.94 6.06,-7.67 3.4,-13.66 l -0.55,0.24 c -0.25,4.22 -2.38,6.45 -5.19,7.61 -4.08,1.69 -10.31,1.24 -14.97,-4.1 -9.04,-6.11 -15.4,-1.77 -20.08,-7.88 -2.76,-3.62 -2.71,-6.81 -1.53,-10.38 l -0.46,-0.28 c -12.45,6.51 -0.82,18.57 -3.12,22.6 l -6.06,10.63 -9.75,-5.9 c -0.89,7.12 -11.99,45 -18.69,47.56 -1.74,-2.5 -1.66,-9.12 -1.91,-13.69 -0.36,-6.38 2.57,-11.05 1.93,-19.96 -0.28,-3.88 -2.22,-9.23 -5.32,-14.56 3.05,-2.01 4.44,-5.14 4.36,-8.79 -0.08,-4.09 -1.92,-8.84 -3.19,-12.7 -1.63,-4.98 -3.05,-8.76 -1.17,-8.76 5.33,2.79 10.34,3.28 14.66,2.03 6.23,-1.79 10.19,-7.73 15.83,-10.64 6.5,-3.36 12.05,-2.77 19.49,-5.61 -10.15,-3.88 -11.61,-14.27 -25.42,-12.13 -8.3,1.28 -20.75,16.99 -23.01,15.69 -1.59,-4.66 -0.57,-10.08 0.31,-17.4 0.45,-3.65 0.88,-7.79 0.91,-12.52 0.04,-4.75 -0.3,-10.12 -1.34,-16.21 -1.39,-8.16 -4.34,-18.61 -9.09,-29.75 h 0.13 c 186.3,62.28 187.67,323.11 189.23,406.71 z m -84.8,-46.59 c -3.83,0 -6.96,3.31 -6.96,7.36 0,4.04 3.13,7.36 6.96,7.36 3.84,0 6.96,-3.32 6.96,-7.36 0,-4.05 -3.12,-7.36 -6.96,-7.36 z m -12.79,-12.94 c 3.84,0 6.96,3.3 6.96,7.36 0,4.05 -3.12,7.35 -6.96,7.35 -3.83,0 -6.96,-3.3 -6.96,-7.35 0,-4.06 3.13,-7.36 6.96,-7.36 z m 23.62,-2.12 c 3.83,0 6.96,3.31 6.96,7.36 0,4.05 -3.13,7.36 -6.96,7.36 -3.84,0 -6.96,-3.31 -6.96,-7.36 0,-4.05 3.12,-7.36 6.96,-7.36 z m -11.16,11.15 C 1688,4734.65 1654.38,4680.39 1585.1,4676 l -0.01,19.55 c 56.09,1.8 98.03,57.15 103.16,108.9 z m -130.09,22.64 c 1.64,-0.8 3.22,-2.13 4.47,-3.52 1.82,-2.21 7.7,-1.11 11.05,-2.12 2.05,-0.61 3.01,-1.46 3.14,-1.09 -1.01,2.09 -1.72,4.17 -3.43,5.79 -3.71,3.52 -14.93,6 -15.23,0.94 z m 25.66,-378.85 h -0.12 c -4.73,11.12 -7.59,21.61 -8.98,29.75 -1.03,6.09 -1.38,11.46 -1.33,16.21 0.03,4.73 0.46,8.87 0.9,12.53 0.88,7.31 1.9,12.74 0.32,17.39 -2.26,1.3 -14.72,-14.4 -23.02,-15.69 -13.8,-2.14 -15.26,8.25 -25.42,12.13 7.45,2.85 12.99,2.25 19.5,5.61 5.64,2.91 9.59,8.85 15.83,10.64 4.31,1.25 9.32,0.76 14.66,-2.02 1.87,0 0.45,3.77 -1.18,8.75 -1.27,3.86 -3.11,8.61 -3.19,12.7 -0.07,3.66 1.31,6.78 4.37,8.79 -3.11,5.33 -5.05,10.68 -5.33,14.57 -0.63,8.9 2.29,13.57 1.94,19.95 -0.26,4.57 -0.16,11.2 -1.91,13.69 -6.71,-2.56 -17.81,-40.44 -18.69,-47.56 l -9.76,5.9 -6.05,-10.63 c -2.31,-4.03 9.33,-16.09 -3.12,-22.6 l -0.46,0.28 c 1.17,3.57 1.23,6.76 -1.54,10.38 -4.67,6.12 -11.04,1.77 -20.08,7.88 -4.66,5.34 -10.89,5.79 -14.96,4.1 -2.81,-1.16 -4.95,-3.39 -5.19,-7.61 l -0.55,-0.24 c -2.67,5.99 -0.29,10.72 3.4,13.66 9.16,7.31 31.67,-4.22 34.16,0 l 5.64,9.59 -9.65,6.1 c 24.32,17.38 24.44,47.17 22.59,74.32 l -1.56,0.79 c -3.97,-25 -14.87,-43.82 -32.19,-57.14 -6.51,-5.02 -14.57,-9.64 -23.47,-2.1 10.7,7.17 21.35,22.12 24.85,34.67 3.43,12.3 4.92,26.6 4.4,42.5 l -1.26,1.09 c -4.84,-27.79 -19.95,-41.97 -30.06,-49.31 -7.17,-5.18 -15.78,-9.9 -23.68,-2.78 11.63,9.51 20.65,22.02 25.32,35.1 4.87,13.65 6.46,28.72 5.17,43.91 l -1.11,1.46 c -6.06,-25.91 -12.44,-38.74 -27.26,-50.02 -7.45,-5.68 -16,-8.97 -24.45,-1.33 15.4,11.77 21.73,22.22 26.08,40.18 4.29,17.77 6.89,32.97 6.63,52.87 l -1.14,4.08 c -5.85,-33.03 -14.95,-53.57 -25.61,-62.67 -7.19,-6.14 -16.56,-10.69 -22.15,-4.06 7.13,8.16 11.63,17.05 14.03,26.69 4.9,19.65 3.84,36.04 3.47,62.39 -0.25,17.2 1.61,33.61 9.68,48.18 8.28,14.96 26.73,18.71 40.14,14.8 21.86,-6.61 27.5,-32.54 17.18,-48.6 -5.45,-8.49 -4.6,-19.37 -1.7,-24.71 3.56,-6.56 10.94,-13.31 18.12,-19.11 6.48,-5.24 24.95,-18.04 36.44,-16.18 -0.53,6.73 1.29,14.07 3.52,21.53 2.24,7.46 4.89,15.07 6.02,22.27 1.03,6.55 0.18,14.26 -3.17,18.72 -3.88,3.93 -7.84,5.83 -11.74,7.18 -5.02,1.75 -7.95,2.56 -10.9,6.58 -1.55,2.11 -2.06,6.08 -2.4,10.36 2.64,-2.88 4.72,-4.85 7.09,-6.08 2.14,-1.11 8.39,-2.89 10.33,-0.66 -2.05,4.54 -5.8,8.42 -10.29,10.61 -6.01,2.94 -11.69,1.73 -16.11,-2.99 -1.26,4.72 -0.49,10.4 3.31,13.87 3.96,3.62 12.19,2.32 16.56,-0.03 -0.54,3.46 1.29,6.79 6.25,7.29 3.39,0.35 6.85,-0.64 10.05,-1.54 4.82,-1.37 8.45,-3.47 12.93,-5.85 z m -104.56,360.12 c 3.83,0 6.95,3.31 6.95,7.36 0,4.05 -3.12,7.36 -6.95,7.36 -3.84,0 -6.97,-3.31 -6.97,-7.36 0,-4.05 3.13,-7.36 6.97,-7.36 z m 12.78,-12.94 c -3.83,0 -6.96,3.3 -6.96,7.36 0,4.05 3.13,7.35 6.96,7.35 3.84,0 6.97,-3.3 6.97,-7.35 0,-4.06 -3.13,-7.36 -6.97,-7.36 z m -23.61,-2.12 c -3.84,0 -6.96,3.31 -6.96,7.36 0,4.05 3.12,7.36 6.96,7.36 3.83,0 6.96,-3.31 6.96,-7.36 0,-4.05 -3.13,-7.36 -6.96,-7.36 z m 11.15,11.15 c 1.39,-69.8 35.01,-124.06 104.29,-128.45 l 0.01,19.55 c -56.09,1.8 -98.02,57.15 -103.15,108.9 h -1.15 v 0"
         style="fill:#ffffff;fill-opacity:1;fill-rule:evenodd;stroke:none"
         id="path373" />
      <path
         d="m 1541.96,4253.2 c 5.87,0 10.73,1.92 14.55,5.78 3.83,3.85 5.74,8.92 5.74,15.2 0,6.22 -1.88,11.28 -5.65,15.15 -3.77,3.89 -8.65,5.83 -14.64,5.83 -5.83,0 -10.67,-1.96 -14.51,-5.87 -3.86,-3.9 -5.79,-8.95 -5.79,-15.11 0,-6.22 1.89,-11.27 5.69,-15.15 3.8,-3.89 8.67,-5.83 14.61,-5.83 z m -0.08,39.38 c 8.67,0 13,-6.29 13,-18.92 0,-11.92 -4.3,-17.89 -12.92,-17.89 -8.63,0 -12.93,6.16 -12.93,18.49 0,12.22 4.28,18.32 12.85,18.32 v 0"
         style="fill:#222123;fill-opacity:1;fill-rule:evenodd;stroke:none"
         id="path375" />
      <path
         d="m 1586.66,4155.17 c 5.24,0 10.1,1.63 14.55,4.89 v 1.03 c 0,0.67 0.05,1.76 0.17,3.25 -3.88,-3.84 -8.28,-5.74 -13.19,-5.74 -9.59,0 -14.38,5.94 -14.38,17.8 v 0.27 h 29.46 c 0,0.22 0.03,0.54 0.08,0.94 v 0.94 c 0,6 -1.5,10.61 -4.5,13.83 -3,3.23 -7.23,4.84 -12.71,4.84 -5.93,0 -10.71,-1.93 -14.3,-5.78 -3.59,-3.86 -5.39,-8.97 -5.39,-15.37 0,-6.17 1.86,-11.19 5.6,-15.08 3.75,-3.87 8.61,-5.82 14.61,-5.82 z m -9.09,35.52 c 2.23,2.65 4.97,3.96 8.23,3.96 3.31,0 5.92,-1.2 7.83,-3.57 1.91,-2.38 2.87,-5.7 2.87,-9.95 v -1.46 h -22.52 c 0.17,4.54 1.37,8.21 3.59,11.02 v 0"
         style="fill:#222123;fill-opacity:1;fill-rule:evenodd;stroke:none"
         id="path377" />
      <path
         d="m 1498.37,4254.31 c 1.38,0 2.6,-0.11 3.69,-0.34 -0.29,4.28 -0.43,10.05 -0.43,17.3 0,5.93 0.7,10.31 2.1,13.1 1.39,2.8 3.69,4.2 6.89,4.2 1.31,0 2.68,-0.38 4.11,-1.12 l 0.68,0.44 c 0,2.84 0.14,5.02 0.43,6.49 -1.54,0.29 -2.63,0.44 -3.26,0.44 -4.05,0 -7.62,-3.28 -10.7,-9.86 0,3.55 0.18,6.69 0.52,9.42 -1.09,-0.22 -2.28,-0.33 -3.6,-0.33 -1.31,0 -2.54,0.11 -3.68,0.33 0.29,-3.07 0.43,-7.21 0.43,-12.41 0,-11.88 -0.14,-21.18 -0.43,-27.92 1.14,0.19 2.22,0.26 3.25,0.26"
         style="fill:#222123;fill-opacity:1;fill-rule:evenodd;stroke:none"
         id="path379" />
      <path
         d="m 1511.9,4215.54 c -1.19,0 -2.22,-0.42 -3.08,-1.24 -0.86,-0.83 -1.29,-1.83 -1.29,-3.03 0,-1.21 0.43,-2.23 1.29,-3.09 0.86,-0.86 1.89,-1.28 3.08,-1.28 1.2,0 2.23,0.42 3.09,1.28 0.85,0.86 1.28,1.88 1.28,3.09 0,1.2 -0.43,2.2 -1.28,3.03 -0.86,0.82 -1.89,1.24 -3.09,1.24"
         style="fill:#222123;fill-opacity:1;fill-rule:evenodd;stroke:none"
         id="path381" />
      <path
         d="m 1502.7,4114.18 c 4.84,0 8.78,-2.16 11.81,-6.51 0.74,2.62 1.54,4.83 2.4,6.6 -4.17,2.1 -8.51,3.16 -13.02,3.16 -5.36,0 -9.72,-1.53 -13.06,-4.63 -3.33,-3.07 -5,-7.04 -5,-11.89 0,-6.39 3.79,-11.19 11.39,-14.39 l 6.93,-2.91 c 3.08,-1.31 5.25,-2.7 6.5,-4.2 1.43,-1.65 2.15,-3.85 2.15,-6.59 0,-3.88 -1.13,-6.95 -3.39,-9.2 -2.25,-2.26 -5.21,-3.39 -8.86,-3.39 -6.74,0 -11.44,3.4 -14.12,10.19 -0.23,-3.02 -0.86,-6.05 -1.89,-9.08 3.88,-3.02 8.68,-4.53 14.39,-4.53 6.16,0 11.1,1.69 14.81,5.08 3.71,3.4 5.56,7.85 5.56,13.38 0,3.65 -0.88,6.62 -2.65,8.9 -1.77,2.28 -4.65,4.27 -8.65,5.99 l -6.94,2.99 c -5.76,2.5 -8.64,5.99 -8.64,10.43 0,3.24 0.92,5.83 2.79,7.74 1.85,1.9 4.35,2.86 7.49,2.86"
         style="fill:#222123;fill-opacity:1;fill-rule:evenodd;stroke:none"
         id="path383" />
      <path
         d="m 1511.9,4156.37 c 1.09,0 2.26,-0.13 3.52,-0.42 -0.29,7.82 -0.43,14.9 -0.43,21.23 0,5.77 0.14,12.16 0.43,19.18 -0.98,-0.22 -2.15,-0.35 -3.52,-0.35 -1.25,0 -2.42,0.13 -3.51,0.35 0.28,-6.96 0.43,-13.36 0.43,-19.18 0,-6.33 -0.15,-13.41 -0.43,-21.23 1.31,0.29 2.48,0.42 3.51,0.42"
         style="fill:#222123;fill-opacity:1;fill-rule:evenodd;stroke:none"
         id="path385" />
      <path
         d="m 1557.03,4196.36 c -2.97,-11.01 -7.2,-21.83 -12.67,-32.45 -6.51,14.61 -10.71,25.43 -12.59,32.45 -1.2,-0.22 -2.55,-0.35 -4.03,-0.35 -1.43,0 -2.71,0.13 -3.85,0.35 8.67,-19.4 14.18,-32.88 16.53,-40.41 0.51,0.11 1.31,0.17 2.39,0.17 1.15,0 2.03,-0.06 2.66,-0.17 2.05,6.45 7.7,19.92 16.95,40.41 -0.74,-0.22 -1.62,-0.35 -2.65,-0.35 -0.98,0 -1.89,0.13 -2.74,0.35"
         style="fill:#222123;fill-opacity:1;fill-rule:evenodd;stroke:none"
         id="path387" />
      <path
         d="m 1645.73,4253.2 c 4.86,0 9.11,1.91 12.76,5.73 0.52,-3.31 2.09,-4.96 4.71,-4.96 1.6,0 3.94,0.46 7.03,1.38 l -0.35,1.7 c -0.34,-0.05 -0.83,-0.08 -1.45,-0.08 -1.72,0 -2.82,0.57 -3.34,1.71 -0.29,0.68 -0.43,2 -0.43,3.93 l 0.34,17.05 v 1.03 c 0,4.96 -1.05,8.6 -3.17,10.92 -2.11,2.3 -5.56,3.47 -10.36,3.47 -5.36,0 -9.96,-1.62 -13.78,-4.81 l -0.18,-4.53 h 0.69 c 2.68,4.04 6.37,6.08 11.04,6.08 3.44,0 5.87,-0.91 7.33,-2.74 1.45,-1.83 2.18,-4.65 2.18,-8.48 v -1.79 c -0.91,-0.81 -2.71,-1.49 -5.4,-2.06 -3.19,-0.63 -6.36,-1.26 -9.5,-1.89 -6.62,-1.43 -9.93,-5.14 -9.93,-11.12 0,-7.02 3.94,-10.54 11.81,-10.54 z m -0.59,18.58 c 2.22,1.15 6.71,2.29 13.44,3.43 v -11.04 c 0,-1.5 -0.49,-2.73 -1.45,-3.68 -2.52,-2.52 -5.37,-3.77 -8.57,-3.77 -5.08,0 -7.62,2.7 -7.62,8.13 0,3.19 1.39,5.51 4.2,6.93 v 0"
         style="fill:#222123;fill-opacity:1;fill-rule:evenodd;stroke:none"
         id="path389" />
      <path
         d="m 1589.99,4253.11 c 6.11,0 10.99,1.43 14.64,4.29 -0.05,0.34 -0.08,0.91 -0.08,1.71 0,0.51 0.05,1.57 0.17,3.17 -4.05,-4.11 -8.37,-6.17 -12.93,-6.17 -4.51,0 -8.12,1.62 -10.83,4.84 -2.72,3.23 -4.07,7.63 -4.07,13.23 0,5.83 1.25,10.31 3.77,13.49 2.51,3.17 6.02,4.75 10.53,4.75 5.37,0 9.24,-2.68 11.65,-8.05 0.62,2.8 1.39,5.25 2.31,7.37 -4.4,2.28 -9.05,3.42 -13.96,3.42 -6.39,0 -11.51,-1.92 -15.37,-5.74 -3.85,-3.82 -5.78,-8.93 -5.78,-15.32 0,-6.34 1.83,-11.43 5.48,-15.25 3.65,-3.82 8.47,-5.74 14.47,-5.74"
         style="fill:#222123;fill-opacity:1;fill-rule:evenodd;stroke:none"
         id="path391" />
      <path
         d="m 1678.44,4206.9 c 1.2,0 2.23,0.42 3.08,1.28 0.86,0.86 1.29,1.88 1.29,3.09 0,1.2 -0.43,2.2 -1.29,3.03 -0.85,0.82 -1.88,1.24 -3.08,1.24 -1.19,0 -2.22,-0.42 -3.07,-1.24 -0.86,-0.83 -1.29,-1.83 -1.29,-3.03 0,-1.21 0.43,-2.23 1.29,-3.09 0.85,-0.86 1.88,-1.28 3.07,-1.28"
         style="fill:#222123;fill-opacity:1;fill-rule:evenodd;stroke:none"
         id="path393" />
      <path
         d="m 1696.12,4175.86 c -0.14,-5.18 -0.21,-8.19 -0.21,-9.04 0,-4.11 0.83,-7.1 2.49,-8.94 1.65,-1.87 4.45,-2.79 8.39,-2.79 3.31,0 6.42,0.97 9.33,2.91 l -0.6,1.89 c -2.51,-1.2 -4.51,-1.8 -5.99,-1.8 -2.63,0 -4.49,0.83 -5.57,2.52 -1.08,1.69 -1.63,4.45 -1.63,8.27 0,2.8 0.06,6.39 0.17,10.79 0.11,4.39 0.18,7.42 0.18,9.08 l 0.17,4.27 c 0.63,0.06 1.65,0.09 3.08,0.09 2.17,0 4.79,-0.09 7.88,-0.26 v 0.69 c 0,1.03 0.08,1.96 0.26,2.82 -4.28,-0.35 -8,-0.51 -11.14,-0.51 v 5.65 c 0,0.86 0.09,3.12 0.26,6.77 -1.88,-0.98 -4.17,-1.68 -6.85,-2.14 0.12,-2.98 0.17,-5.37 0.17,-7.2 v -2.82 c -1.83,0 -3.65,0.08 -5.48,0.25 0,-0.11 0.03,-0.35 0.08,-0.68 V 4195 c 0,-0.47 -0.05,-1.2 -0.17,-2.23 1.55,0.17 3.03,0.25 4.46,0.25 h 0.94 v -2.91 c 0,-4.33 -0.07,-9.09 -0.22,-14.25"
         style="fill:#222123;fill-opacity:1;fill-rule:evenodd;stroke:none"
         id="path395" />
      <path
         d="m 1753.5,4078.65 c 0,0.22 0.02,0.53 0.08,0.94 v 0.94 c 0,5.99 -1.5,10.6 -4.49,13.82 -3,3.23 -7.23,4.85 -12.72,4.85 -5.94,0 -10.71,-1.93 -14.3,-5.78 -3.6,-3.86 -5.4,-8.98 -5.4,-15.38 0,-6.16 1.87,-11.19 5.62,-15.06 3.73,-3.88 8.6,-5.82 14.59,-5.82 5.25,0 10.11,1.62 14.57,4.87 v 1.02 c 0,0.7 0.05,1.78 0.17,3.28 -3.89,-3.84 -8.29,-5.76 -13.2,-5.76 -9.58,0 -14.38,5.94 -14.38,17.82 v 0.26 z m -25.69,14.01 c 2.22,2.65 4.96,3.97 8.22,3.97 3.31,0 5.92,-1.19 7.83,-3.58 1.92,-2.38 2.87,-5.69 2.87,-9.95 v -1.46 h -22.52 c 0.17,4.54 1.38,8.21 3.6,11.02 v 0"
         style="fill:#222123;fill-opacity:1;fill-rule:evenodd;stroke:none"
         id="path397" />
      <path
         d="m 1733.85,4171.53 c -4.63,11.36 -7.68,19.64 -9.17,24.83 -1.2,-0.22 -2.57,-0.35 -4.1,-0.35 -1.61,0 -3,0.13 -4.2,0.35 7.19,-16.04 11.64,-26.28 13.35,-30.74 l 3.6,-9.41 -1.97,-4.54 c -3.43,-7.93 -6.57,-14.3 -9.42,-19.1 1.03,0.17 2.03,0.26 3,0.26 1.03,0 1.99,-0.09 2.91,-0.26 1.03,4.06 3.62,10.79 7.79,20.21 l 11.48,25.94 c 3.71,8.4 6.42,14.28 8.13,17.64 -0.85,-0.22 -1.79,-0.35 -2.82,-0.35 -1.09,0 -2.06,0.13 -2.92,0.35 -2.05,-6.68 -5.25,-15.03 -9.59,-25.08 l -3.08,-7.11 -2.99,7.36"
         style="fill:#222123;fill-opacity:1;fill-rule:evenodd;stroke:none"
         id="path399" />
      <path
         d="m 1691.89,4254.15 c 1.08,0 1.88,-0.07 2.4,-0.18 1.94,7.99 5.53,18.29 10.78,30.92 6.46,-17.07 9.97,-27.38 10.54,-30.92 0.85,0.18 1.68,0.27 2.48,0.27 0.86,0 1.71,-0.09 2.57,-0.27 1.71,6.39 7.14,19.86 16.26,40.41 -1.13,-0.11 -1.99,-0.16 -2.56,-0.16 -0.51,0 -1.4,0.05 -2.66,0.16 -4.91,-14.6 -8.87,-25.03 -11.9,-31.25 -3.36,6.8 -6.93,17.21 -10.7,31.25 -0.86,-0.16 -1.68,-0.25 -2.48,-0.25 -0.86,0 -1.71,0.09 -2.57,0.25 -3.38,-11.75 -7.11,-22.2 -11.22,-31.34 -5.48,14.22 -9.05,24.66 -10.7,31.34 -1.15,-0.22 -2.43,-0.33 -3.86,-0.33 -1.37,0 -2.63,0.11 -3.76,0.33 8.44,-20.55 13.41,-34.02 14.9,-40.41 0.57,0.11 1.4,0.18 2.48,0.18"
         style="fill:#222123;fill-opacity:1;fill-rule:evenodd;stroke:none"
         id="path401" />
      <path
         d="m 1678.44,4196.01 c -1.25,0 -2.42,0.13 -3.51,0.35 0.29,-6.96 0.44,-13.36 0.44,-19.18 0,-6.33 -0.15,-13.41 -0.44,-21.23 1.32,0.29 2.49,0.42 3.51,0.42 1.09,0 2.26,-0.13 3.52,-0.42 -0.29,7.82 -0.44,14.9 -0.44,21.23 0,5.77 0.15,12.16 0.44,19.18 -0.98,-0.22 -2.15,-0.35 -3.52,-0.35"
         style="fill:#222123;fill-opacity:1;fill-rule:evenodd;stroke:none"
         id="path403" />
      <path
         d="m 1615.6,4275.63 c 0,-7.81 -0.12,-15.04 -0.35,-21.66 1.14,0.18 2.28,0.27 3.43,0.27 1.19,0 2.42,-0.09 3.68,-0.27 -0.29,6 -0.43,18.78 -0.43,38.36 2.68,1.77 4.74,3.09 6.17,3.95 v 4.54 c -1.89,-1.66 -3.94,-3.29 -6.17,-4.9 v 0.95 c 0,8.11 0.14,15.22 0.43,21.33 -1.6,-0.12 -2.83,-0.18 -3.68,-0.18 -0.8,0 -1.95,0.06 -3.43,0.18 0.29,-5.95 0.43,-14.04 0.43,-24.33 v -2.22 c -2.05,-1.49 -4.05,-2.78 -5.99,-3.85 v -4.46 c 3.2,2.58 5.16,4.14 5.91,4.71 v -12.42"
         style="fill:#222123;fill-opacity:1;fill-rule:evenodd;stroke:none"
         id="path405" />
      <path
         d="m 1620.65,4186.95 c 0,3.54 0.17,6.67 0.51,9.41 -1.09,-0.22 -2.28,-0.35 -3.6,-0.35 -1.31,0 -2.54,0.13 -3.68,0.35 0.29,-3.07 0.43,-7.22 0.43,-12.41 0,-11.87 -0.14,-21.18 -0.43,-27.92 1.14,0.18 2.23,0.27 3.25,0.27 1.38,0 2.61,-0.12 3.69,-0.35 -0.29,4.28 -0.43,10.04 -0.43,17.29 0,5.94 0.7,10.3 2.1,13.09 1.4,2.81 3.7,4.21 6.89,4.21 1.31,0 2.69,-0.37 4.11,-1.11 l 0.68,0.42 c 0,2.86 0.15,5.02 0.44,6.51 -1.54,0.3 -2.63,0.43 -3.26,0.43 -4.05,0 -7.62,-3.28 -10.7,-9.84"
         style="fill:#222123;fill-opacity:1;fill-rule:evenodd;stroke:none"
         id="path407" />
      <path
         d="m 1466.77,4188.91 v 1.55 c -0.05,0.68 -0.08,1.19 -0.08,1.54 0,0.85 0.06,2.3 0.17,4.36 -0.91,-0.22 -2.02,-0.35 -3.34,-0.35 -1.25,0 -2.43,0.13 -3.51,0.35 0.23,-4.06 0.34,-10.53 0.34,-19.43 v -6.08 c 0,-6.73 -0.11,-11.71 -0.34,-14.9 1.32,0.29 2.49,0.42 3.51,0.42 1.08,0 2.29,-0.13 3.6,-0.42 -0.17,2.91 -0.26,8.24 -0.26,16.01 v 3.86 c 0,6.44 0.98,10.9 2.92,13.35 1.93,2.45 4.59,3.68 7.95,3.68 6.51,0 9.77,-4.23 9.77,-12.67 0,-10.16 -0.17,-18.24 -0.51,-24.23 1.31,0.29 2.48,0.42 3.51,0.42 1.02,0 2.19,-0.13 3.51,-0.42 -0.17,4.79 -0.26,9.3 -0.26,13.53 0,1.31 0.02,3.35 0.09,6.12 0.05,2.77 0.08,4.87 0.08,6.29 0,10.22 -4.57,15.33 -13.7,15.33 -5.71,0 -10.19,-2.77 -13.45,-8.31"
         style="fill:#222123;fill-opacity:1;fill-rule:evenodd;stroke:none"
         id="path409" />
      <path
         d="m 1651.04,4158.42 c -4.16,0 -7.65,2.15 -10.44,6.44 -0.52,-2.25 -1.2,-4.43 -2.06,-6.6 2.92,-2.05 6.6,-3.09 11.05,-3.09 4.5,0 8.16,1.27 10.96,3.81 2.79,2.55 4.2,5.76 4.2,9.64 0,4.96 -2.75,8.24 -8.23,9.85 l -5.82,1.71 c -4.34,1.25 -6.5,3.65 -6.5,7.19 0,2.12 0.67,3.84 2.01,5.18 1.34,1.34 3.09,2.02 5.26,2.02 3.37,0 6.68,-1.89 9.94,-5.66 0.34,1.83 0.94,3.63 1.79,5.39 -3.02,1.89 -6.59,2.84 -10.7,2.84 -3.94,0 -7.11,-1.13 -9.5,-3.33 -2.4,-2.23 -3.6,-5.04 -3.6,-8.47 0,-3.02 0.73,-5.37 2.18,-7.09 1.46,-1.7 3.81,-3.02 7.07,-3.93 l 3.94,-1.11 c 4.5,-1.25 6.76,-3.59 6.76,-7.01 0,-2.38 -0.74,-4.29 -2.22,-5.68 -1.49,-1.39 -3.52,-2.1 -6.09,-2.1"
         style="fill:#222123;fill-opacity:1;fill-rule:evenodd;stroke:none"
         id="path411" />
      <path
         d="m 1655.5,3979.55 c 0.06,2.77 0.08,4.86 0.08,6.29 0,10.22 -4.56,15.34 -13.7,15.34 -5.71,0 -10.19,-2.77 -13.44,-8.31 v 1.53 c -0.06,0.68 -0.09,1.2 -0.09,1.54 0,0.86 0.06,2.32 0.18,4.38 -0.92,-0.24 -2.03,-0.34 -3.35,-0.34 -1.25,0 -2.43,0.1 -3.51,0.34 0.23,-4.05 0.35,-10.55 0.35,-19.44 v -6.09 c 0,-6.73 -0.12,-11.69 -0.35,-14.89 1.32,0.28 2.49,0.43 3.51,0.43 1.09,0 2.29,-0.15 3.6,-0.43 -0.17,2.91 -0.25,8.24 -0.25,16.02 v 3.84 c 0,6.45 0.97,10.91 2.91,13.36 1.93,2.45 4.59,3.68 7.96,3.68 6.51,0 9.76,-4.22 9.76,-12.67 0,-10.16 -0.17,-18.24 -0.51,-24.23 1.31,0.28 2.48,0.43 3.51,0.43 1.03,0 2.2,-0.15 3.51,-0.43 -0.17,4.79 -0.25,9.31 -0.25,13.52 0,1.32 0.02,3.35 0.08,6.13"
         style="fill:#222123;fill-opacity:1;fill-rule:evenodd;stroke:none"
         id="path413" />
      <path
         d="m 1573.17,4108.87 c 1.19,0 2.22,0.42 3.08,1.28 0.85,0.86 1.28,1.89 1.28,3.09 0,1.19 -0.43,2.22 -1.28,3.04 -0.86,0.83 -1.89,1.25 -3.08,1.25 -1.2,0 -2.23,-0.42 -3.09,-1.25 -0.86,-0.82 -1.28,-1.85 -1.28,-3.04 0,-1.2 0.42,-2.23 1.28,-3.09 0.86,-0.86 1.89,-1.28 3.09,-1.28"
         style="fill:#222123;fill-opacity:1;fill-rule:evenodd;stroke:none"
         id="path415" />
      <path
         d="m 1667.27,4071.45 c 0,1.32 0.02,3.35 0.09,6.13 0.05,2.76 0.08,4.87 0.08,6.28 0,10.22 -4.57,15.34 -13.7,15.34 -5.71,0 -10.19,-2.77 -13.44,-8.31 v 1.54 c -0.06,0.68 -0.09,1.2 -0.09,1.54 0,0.86 0.05,2.32 0.17,4.36 -0.91,-0.22 -2.02,-0.33 -3.34,-0.33 -1.25,0 -2.43,0.11 -3.51,0.33 0.23,-4.05 0.34,-10.52 0.34,-19.43 v -6.08 c 0,-6.73 -0.11,-11.7 -0.34,-14.9 1.31,0.29 2.48,0.43 3.51,0.43 1.09,0 2.28,-0.14 3.6,-0.43 -0.17,2.92 -0.26,8.25 -0.26,16.02 v 3.84 c 0,6.46 0.98,10.91 2.92,13.37 1.93,2.46 4.58,3.68 7.96,3.68 6.5,0 9.76,-4.23 9.76,-12.67 0,-10.16 -0.17,-18.24 -0.51,-24.24 1.31,0.29 2.48,0.43 3.5,0.43 1.03,0 2.2,-0.14 3.52,-0.43 -0.17,4.8 -0.26,9.3 -0.26,13.53"
         style="fill:#222123;fill-opacity:1;fill-rule:evenodd;stroke:none"
         id="path417" />
      <path
         d="m 1608.71,3980.15 c 0.08,2.93 0.12,4.95 0.12,6.04 0,9.93 -4.58,14.89 -13.74,14.89 -5.39,0 -9.82,-2.59 -13.32,-7.78 -0.11,5.47 -0.17,9.37 -0.17,11.73 0,6.33 0.12,12.69 0.34,19.09 -1.46,-0.24 -2.62,-0.34 -3.46,-0.34 -0.68,0 -1.86,0.1 -3.56,0.34 0.29,-11.24 0.43,-21.95 0.43,-32.11 0,-8.51 -0.14,-19.21 -0.43,-32.11 1.24,0.28 2.37,0.43 3.39,0.43 1.07,0 2.25,-0.15 3.55,-0.43 -0.17,4.63 -0.26,7.97 -0.26,10.02 v 6.08 c 0,7.87 0.58,12.93 1.73,15.15 1.94,3.77 5,5.65 9.19,5.65 3.55,0 6.08,-1.13 7.57,-3.38 1.48,-2.26 2.23,-5.84 2.23,-10.75 0,-4.73 -0.14,-12.32 -0.42,-22.77 1.31,0.28 2.48,0.43 3.51,0.43 1.08,0 2.25,-0.15 3.51,-0.43 -0.23,7.65 -0.34,12.01 -0.34,13.1 0,1.82 0.03,4.21 0.13,7.15"
         style="fill:#222123;fill-opacity:1;fill-rule:evenodd;stroke:none"
         id="path419" />
      <path
         d="m 1685.47,4001.08 c -5.83,0 -10.67,-1.94 -14.52,-5.86 -3.85,-3.9 -5.78,-8.94 -5.78,-15.12 0,-6.22 1.9,-11.27 5.7,-15.15 3.79,-3.88 8.66,-5.83 14.6,-5.83 5.88,0 10.74,1.94 14.55,5.78 3.83,3.87 5.74,8.93 5.74,15.2 0,6.23 -1.88,11.27 -5.65,15.16 -3.77,3.89 -8.65,5.82 -14.64,5.82 z m 0,-39.38 c -8.62,0 -12.93,6.17 -12.93,18.49 0,12.22 4.28,18.33 12.84,18.33 8.68,0 13.02,-6.32 13.02,-18.92 0,-11.95 -4.31,-17.9 -12.93,-17.9 v 0"
         style="fill:#222123;fill-opacity:1;fill-rule:evenodd;stroke:none"
         id="path421" />
      <path
         d="m 1576.25,4079.16 c 0,5.77 0.14,12.16 0.42,19.17 -0.96,-0.22 -2.13,-0.33 -3.5,-0.33 -1.27,0 -2.43,0.11 -3.52,0.33 0.29,-6.96 0.43,-13.34 0.43,-19.17 0,-6.34 -0.14,-13.42 -0.43,-21.24 1.32,0.29 2.49,0.43 3.52,0.43 1.08,0 2.25,-0.14 3.5,-0.43 -0.28,7.82 -0.42,14.9 -0.42,21.24"
         style="fill:#222123;fill-opacity:1;fill-rule:evenodd;stroke:none"
         id="path423" />
      <path
         d="m 1608.61,4060.57 c -9.58,0 -14.39,5.94 -14.39,17.82 v 0.26 h 29.47 c 0,0.22 0.02,0.53 0.08,0.94 v 0.94 c 0,5.99 -1.5,10.6 -4.5,13.82 -2.99,3.23 -7.23,4.85 -12.71,4.85 -5.94,0 -10.71,-1.93 -14.3,-5.78 -3.6,-3.86 -5.39,-8.98 -5.39,-15.38 0,-6.16 1.87,-11.19 5.6,-15.06 3.74,-3.88 8.61,-5.82 14.61,-5.82 5.25,0 10.09,1.62 14.55,4.87 v 1.02 c 0,0.7 0.05,1.78 0.17,3.28 -3.88,-3.84 -8.28,-5.76 -13.19,-5.76 z m -10.61,32.09 c 2.22,2.65 4.96,3.97 8.22,3.97 3.31,0 5.92,-1.19 7.83,-3.58 1.92,-2.38 2.87,-5.69 2.87,-9.95 v -1.46 h -22.52 c 0.17,4.54 1.37,8.21 3.6,11.02 v 0"
         style="fill:#222123;fill-opacity:1;fill-rule:evenodd;stroke:none"
         id="path425" />
      <path
         d="m 1851.58,3999.98 c -1.08,0 -2.06,0.1 -2.91,0.34 -2.05,-6.69 -5.25,-15.05 -9.59,-25.1 l -3.08,-7.11 -3,7.38 c -4.63,11.35 -7.68,19.63 -9.16,24.83 -1.2,-0.24 -2.57,-0.34 -4.11,-0.34 -1.6,0 -3,0.1 -4.2,0.34 7.19,-16.06 11.65,-26.29 13.36,-30.74 l 3.6,-9.43 -1.97,-4.54 c -3.43,-7.93 -6.56,-14.28 -9.42,-19.09 1.03,0.17 2.03,0.25 3,0.25 1.02,0 1.99,-0.08 2.9,-0.25 1.03,4.06 3.63,10.79 7.79,20.22 l 11.48,25.93 c 3.71,8.4 6.42,14.27 8.14,17.65 -0.86,-0.24 -1.8,-0.34 -2.83,-0.34"
         style="fill:#222123;fill-opacity:1;fill-rule:evenodd;stroke:none"
         id="path427" />
      <path
         d="m 1698.1,4096.37 c 5.36,0 9.24,-2.69 11.64,-8.05 0.63,2.8 1.4,5.25 2.31,7.36 -4.39,2.29 -9.04,3.43 -13.95,3.43 -6.4,0 -11.52,-1.91 -15.38,-5.73 -3.85,-3.83 -5.77,-8.94 -5.77,-15.34 0,-6.32 1.82,-11.41 5.48,-15.23 3.65,-3.83 8.47,-5.75 14.47,-5.75 6.11,0 10.99,1.43 14.64,4.28 -0.06,0.35 -0.08,0.92 -0.08,1.71 0,0.52 0.05,1.58 0.17,3.18 -4.06,-4.11 -8.37,-6.17 -12.93,-6.17 -4.52,0 -8.13,1.61 -10.84,4.84 -2.71,3.22 -4.07,7.64 -4.07,13.23 0,5.82 1.26,10.32 3.77,13.49 2.51,3.16 6.02,4.75 10.54,4.75"
         style="fill:#222123;fill-opacity:1;fill-rule:evenodd;stroke:none"
         id="path429" />
      <path
         d="m 1810.91,3963.41 c -2.57,1.54 -6.88,2.31 -12.93,2.31 h -3.25 c -1.09,-0.06 -1.6,-0.09 -1.55,-0.09 -4.44,0 -6.68,1.57 -6.68,4.72 0,2.67 1.35,4.01 4.03,4.01 0.29,0 0.95,-0.05 2.01,-0.16 1.06,-0.11 1.96,-0.17 2.7,-0.17 4.8,0 8.58,1.21 11.35,3.63 2.77,2.42 4.15,5.79 4.15,10.06 0,3.55 -1.12,6.8 -3.34,9.77 h 1.71 c 1.66,0 3.43,-0.09 5.31,-0.26 v 3.77 c -4.05,-0.46 -6.82,-0.68 -8.3,-0.68 -0.75,0 -2.22,0.16 -4.42,0.47 -2.19,0.31 -4.06,0.47 -5.6,0.47 -5.26,0 -9.41,-1.32 -12.46,-3.94 -3.06,-2.64 -4.58,-6.11 -4.58,-10.45 0,-5.83 2.85,-9.65 8.56,-11.47 -4.51,-2.29 -6.77,-4.94 -6.77,-7.97 0,-3.82 2.17,-6.22 6.51,-7.19 -6.33,-2.11 -9.5,-5.97 -9.5,-11.56 0,-3.71 1.38,-6.69 4.15,-8.95 2.77,-2.26 6.55,-3.38 11.34,-3.38 6.57,0 11.86,1.64 15.85,4.93 3.99,3.28 5.99,7.55 5.99,12.79 0,4.46 -1.43,7.57 -4.28,9.34 z m -25,24.15 c 0,3.36 0.88,6.09 2.64,8.18 1.76,2.08 4.06,3.12 6.9,3.12 5.92,0 8.87,-3.78 8.87,-11.3 0,-7.54 -2.95,-11.3 -8.87,-11.3 -2.95,0 -5.28,0.98 -6.99,2.95 -1.7,1.97 -2.55,4.75 -2.55,8.35 z m 19.31,-45.26 c -2.72,-2.25 -6.22,-3.38 -10.49,-3.38 -3.54,0 -6.4,1 -8.56,2.99 -2.17,1.99 -3.26,4.6 -3.26,7.79 0,5.09 2.51,8.43 7.54,10.02 1.25,0.12 2.14,0.18 2.65,0.18 6.05,0 10.16,-0.52 12.32,-1.54 2.58,-1.25 3.86,-3.74 3.86,-7.44 0,-3.5 -1.36,-6.36 -4.06,-8.62 v 0"
         style="fill:#222123;fill-opacity:1;fill-rule:evenodd;stroke:none"
         id="path431" />
      <path
         d="m 1752.17,4001.08 c -5.82,0 -10.66,-1.94 -14.52,-5.86 -3.85,-3.9 -5.77,-8.94 -5.77,-15.12 0,-6.22 1.89,-11.27 5.69,-15.15 3.8,-3.88 8.67,-5.83 14.6,-5.83 5.88,0 10.73,1.94 14.56,5.78 3.82,3.87 5.74,8.93 5.74,15.2 0,6.23 -1.89,11.27 -5.66,15.16 -3.76,3.89 -8.65,5.82 -14.64,5.82 z m 0,-39.38 c -8.62,0 -12.93,6.17 -12.93,18.49 0,12.22 4.29,18.33 12.84,18.33 8.68,0 13.02,-6.32 13.02,-18.92 0,-11.95 -4.31,-17.9 -12.93,-17.9 v 0"
         style="fill:#222123;fill-opacity:1;fill-rule:evenodd;stroke:none"
         id="path433" />
      <path
         d="m 1718.7,4023.95 c -0.81,0 -1.95,0.06 -3.44,0.17 0.23,-3.14 0.35,-8.74 0.35,-16.78 v -22.44 c 0,-12.85 -0.12,-21.17 -0.35,-25 1.15,0.17 2.29,0.25 3.44,0.25 1.19,0 2.42,-0.08 3.67,-0.25 -0.28,6.22 -0.42,18.83 -0.42,37.85 0,12.33 0.14,21.12 0.42,26.37 -1.6,-0.11 -2.82,-0.17 -3.67,-0.17"
         style="fill:#222123;fill-opacity:1;fill-rule:evenodd;stroke:none"
         id="path435" />
      <path
         d="m 1429.7,4254.4 c 0.85,0 1.85,-0.15 3,-0.43 l 16.01,47.87 c 6.28,-17.41 11.53,-33.4 15.75,-47.96 0.86,0.3 1.89,0.43 3.09,0.43 1.08,0 2.07,-0.11 2.99,-0.34 9.36,28.26 15.87,47.76 19.53,58.49 -0.86,-0.24 -1.83,-0.34 -2.92,-0.34 -0.97,0 -1.88,0.1 -2.74,0.34 -4.28,-16.78 -9.24,-33.28 -14.89,-49.49 -5.94,16.55 -11.42,33.04 -16.44,49.49 -0.86,-0.24 -1.8,-0.34 -2.83,-0.34 -0.98,0 -1.89,0.1 -2.75,0.34 -4.79,-17.3 -10.15,-34.08 -16.09,-50.35 -5.19,16.27 -10.14,33.05 -14.81,50.35 -1.2,-0.24 -2.57,-0.34 -4.11,-0.34 -1.54,0 -2.91,0.1 -4.12,0.34 7.82,-24.44 13.93,-43.94 18.33,-58.49 1.14,0.28 2.14,0.43 3,0.43"
         style="fill:#222123;fill-opacity:1;fill-rule:evenodd;stroke:none"
         id="path437" />
      <path
         d="m 1370.79,3979.55 c 0.05,2.77 0.08,4.86 0.08,6.29 0,10.22 -4.57,15.34 -13.7,15.34 -5.71,0 -10.18,-2.77 -13.44,-8.31 v 1.53 c -0.06,0.68 -0.09,1.2 -0.09,1.54 0,0.86 0.06,2.32 0.17,4.38 -0.91,-0.24 -2.03,-0.34 -3.33,-0.34 -1.26,0 -2.43,0.1 -3.52,0.34 0.23,-4.05 0.35,-10.55 0.35,-19.44 v -6.09 c 0,-6.73 -0.12,-11.69 -0.35,-14.89 1.32,0.28 2.48,0.43 3.52,0.43 1.08,0 2.28,-0.15 3.59,-0.43 -0.17,2.91 -0.26,8.24 -0.26,16.02 v 3.84 c 0,6.45 0.98,10.91 2.91,13.36 1.94,2.45 4.6,3.68 7.97,3.68 6.51,0 9.76,-4.22 9.76,-12.67 0,-10.16 -0.17,-18.24 -0.51,-24.23 1.31,0.28 2.48,0.43 3.51,0.43 1.02,0 2.19,-0.15 3.51,-0.43 -0.17,4.79 -0.26,9.31 -0.26,13.52 0,1.32 0.03,3.35 0.09,6.13"
         style="fill:#222123;fill-opacity:1;fill-rule:evenodd;stroke:none"
         id="path439" />
      <path
         d="m 1410.47,4099.11 c -5.82,0 -10.66,-1.96 -14.51,-5.87 -3.85,-3.91 -5.78,-8.95 -5.78,-15.11 0,-6.22 1.9,-11.28 5.69,-15.15 3.8,-3.88 8.67,-5.82 14.6,-5.82 5.88,0 10.74,1.92 14.56,5.78 3.83,3.84 5.74,8.91 5.74,15.19 0,6.22 -1.89,11.28 -5.65,15.16 -3.77,3.88 -8.65,5.82 -14.65,5.82 z m 0,-39.4 c -8.61,0 -12.92,6.18 -12.92,18.51 0,12.22 4.28,18.32 12.84,18.32 8.67,0 13.01,-6.31 13.01,-18.93 0,-11.92 -4.31,-17.9 -12.93,-17.9 v 0"
         style="fill:#222123;fill-opacity:1;fill-rule:evenodd;stroke:none"
         id="path441" />
      <path
         d="m 1419.17,4024.12 c -1.37,-0.4 -2.57,-0.6 -3.6,-0.6 -0.97,0 -2.2,0.2 -3.69,0.6 0.18,-4.97 0.26,-10.14 0.26,-15.5 v -6 c -0.06,-3.41 -0.08,-6.56 -0.08,-9.41 -3.14,5.24 -7.65,7.87 -13.53,7.87 -5.31,0 -9.66,-1.97 -13.06,-5.95 -3.39,-3.97 -5.09,-9.2 -5.09,-15.71 0,-6.16 1.58,-11.09 4.75,-14.77 3.17,-3.69 7.32,-5.53 12.46,-5.53 6.62,0 11.5,3.03 14.64,9.09 0.06,-0.75 0.09,-1.84 0.09,-3.26 0,-1.2 -0.06,-2.88 -0.18,-5.05 1.32,0.28 2.52,0.43 3.6,0.43 1.09,0 2.28,-0.15 3.6,-0.43 -0.34,10.96 -0.51,23.2 -0.51,36.74 0,11.52 0.11,20.69 0.34,27.48 z m -10.32,-56.91 c -2.26,-3.23 -5.44,-4.83 -9.55,-4.83 -3.71,0 -6.61,1.5 -8.69,4.5 -2.08,2.99 -3.13,7.27 -3.13,12.79 0,5.83 1.13,10.32 3.38,13.45 2.26,3.15 5.39,4.71 9.38,4.71 3.77,0 6.71,-1.43 8.82,-4.28 2.11,-2.86 3.17,-6.93 3.17,-12.24 0,-6.17 -1.13,-10.86 -3.38,-14.1 v 0"
         style="fill:#222123;fill-opacity:1;fill-rule:evenodd;stroke:none"
         id="path443" />
      <path
         d="m 1326.86,3962.9 c -1.71,0 -2.83,0.57 -3.34,1.71 -0.29,0.68 -0.42,1.99 -0.42,3.93 l 0.33,17.05 v 1.03 c 0,4.97 -1.05,8.6 -3.16,10.92 -2.12,2.3 -5.57,3.46 -10.36,3.46 -5.37,0 -9.97,-1.6 -13.79,-4.79 l -0.17,-4.54 h 0.69 c 2.67,4.05 6.36,6.08 11.04,6.08 3.42,0 5.86,-0.92 7.32,-2.74 1.46,-1.83 2.18,-4.65 2.18,-8.48 v -1.81 c -0.91,-0.79 -2.71,-1.48 -5.39,-2.05 -3.2,-0.62 -6.37,-1.25 -9.5,-1.88 -6.63,-1.42 -9.94,-5.13 -9.94,-11.12 0,-7.04 3.94,-10.55 11.82,-10.55 4.85,0 9.1,1.92 12.76,5.74 0.51,-3.3 2.08,-4.96 4.71,-4.96 1.59,0 3.94,0.45 7.02,1.37 l -0.34,1.72 c -0.35,-0.06 -0.83,-0.09 -1.46,-0.09 z m -9.85,7.18 c 0,-1.48 -0.48,-2.7 -1.45,-3.68 -2.52,-2.51 -5.37,-3.77 -8.57,-3.77 -5.08,0 -7.61,2.72 -7.61,8.14 0,3.2 1.39,5.51 4.19,6.94 2.23,1.14 6.7,2.28 13.44,3.43 v -11.06 0"
         style="fill:#222123;fill-opacity:1;fill-rule:evenodd;stroke:none"
         id="path445" />
      <path
         d="m 1396.3,4180.61 c 0,-8.9 1.94,-15.43 5.82,-19.57 3.89,-4.14 10.08,-6.21 18.59,-6.21 9.99,0 16.95,3.39 20.89,10.2 1.54,2.73 2.57,6.81 3.08,12.24 0.29,3.6 0.43,10.05 0.43,19.35 v 2.22 c 0,3.03 0.15,8.22 0.43,15.58 -0.86,-0.22 -1.79,-0.33 -2.83,-0.33 -0.91,0 -1.79,0.11 -2.65,0.33 0.23,-8.2 0.35,-17.14 0.35,-26.79 0,-6.29 -0.2,-10.77 -0.61,-13.44 -0.57,-4.01 -1.77,-7.14 -3.6,-9.43 -3.21,-3.99 -7.93,-5.98 -14.16,-5.98 -6.19,0 -10.87,1.93 -14.08,5.82 -1.89,2.28 -3.12,5.25 -3.69,8.9 -0.4,2.22 -0.6,5.51 -0.6,9.85 l 0.34,31.17 c -1.13,-0.29 -2.46,-0.43 -3.98,-0.43 -1.36,0 -2.6,0.11 -3.73,0.33 0.17,-6.15 0.26,-11.54 0.26,-16.17 0,-3.55 -0.04,-7.29 -0.12,-11.22 -0.09,-3.95 -0.14,-6.08 -0.14,-6.42"
         style="fill:#222123;fill-opacity:1;fill-rule:evenodd;stroke:none"
         id="path447" />
      <path
         d="m 1456.03,4094.31 v 3.52 c -2.17,-0.12 -3.86,-0.18 -5.05,-0.18 -0.4,0 -1.03,0.03 -1.89,0.09 h -1.88 c -0.46,4.8 -0.69,8.36 -0.69,10.7 0,5.31 2.43,7.96 7.28,7.96 1.83,0 3.46,-0.34 4.88,-1.02 l 0.86,6.68 c -0.4,0.06 -0.98,0.09 -1.71,0.09 -4.91,0 -8.85,-2.12 -11.81,-6.35 -3.1,-4.39 -4.66,-10.41 -4.72,-18.06 h -1.11 c -0.52,-0.06 -0.92,-0.09 -1.2,-0.09 -0.69,0 -1.89,0.06 -3.59,0.18 v -3.26 c 2.51,0.11 4.41,0.17 5.73,0.17 v -10.79 c 0,-13.76 -0.2,-22.43 -0.6,-26.03 1.42,0.29 2.69,0.43 3.77,0.43 1.2,0 2.45,-0.14 3.76,-0.43 -0.46,5.65 -0.68,17.93 -0.68,36.82 5.42,-0.29 8.3,-0.43 8.65,-0.43"
         style="fill:#222123;fill-opacity:1;fill-rule:evenodd;stroke:none"
         id="path449" />
      <path
         d="m 1560.49,4061.34 c -0.06,0.35 -0.08,0.92 -0.08,1.71 0,0.52 0.05,1.58 0.17,3.18 -4.06,-4.11 -8.37,-6.17 -12.94,-6.17 -4.51,0 -8.11,1.61 -10.82,4.84 -2.72,3.22 -4.07,7.64 -4.07,13.23 0,5.82 1.25,10.32 3.77,13.49 2.51,3.16 6.01,4.75 10.53,4.75 5.37,0 9.24,-2.69 11.65,-8.05 0.62,2.8 1.39,5.25 2.31,7.36 -4.4,2.29 -9.05,3.43 -13.96,3.43 -6.39,0 -11.52,-1.91 -15.37,-5.73 -3.85,-3.83 -5.78,-8.94 -5.78,-15.34 0,-6.32 1.82,-11.41 5.48,-15.23 3.65,-3.83 8.47,-5.75 14.47,-5.75 6.11,0 10.99,1.43 14.64,4.28"
         style="fill:#222123;fill-opacity:1;fill-rule:evenodd;stroke:none"
         id="path451" />
      <path
         d="m 1553,3998.35 c 5.37,0 9.25,-2.69 11.64,-8.06 0.64,2.8 1.4,5.25 2.32,7.37 -4.4,2.28 -9.05,3.42 -13.96,3.42 -6.4,0 -11.52,-1.91 -15.37,-5.73 -3.86,-3.83 -5.78,-8.94 -5.78,-15.33 0,-6.33 1.83,-11.42 5.48,-15.24 3.65,-3.83 8.48,-5.74 14.47,-5.74 6.11,0 10.99,1.44 14.65,4.29 -0.06,0.34 -0.09,0.91 -0.09,1.71 0,0.51 0.06,1.56 0.17,3.17 -4.05,-4.11 -8.36,-6.17 -12.93,-6.17 -4.51,0 -8.12,1.61 -10.83,4.84 -2.72,3.22 -4.06,7.63 -4.06,13.22 0,5.83 1.25,10.33 3.76,13.5 2.51,3.15 6.03,4.75 10.53,4.75"
         style="fill:#222123;fill-opacity:1;fill-rule:evenodd;stroke:none"
         id="path453" />
      <path
         d="m 1508.31,4001.18 c -5.95,0 -10.71,-1.94 -14.31,-5.78 -3.59,-3.86 -5.39,-8.99 -5.39,-15.38 0,-6.17 1.87,-11.19 5.61,-15.07 3.74,-3.88 8.6,-5.83 14.6,-5.83 5.25,0 10.1,1.63 14.55,4.89 v 1.03 c 0,0.68 0.06,1.76 0.17,3.25 -3.88,-3.82 -8.27,-5.73 -13.18,-5.73 -9.59,0 -14.39,5.92 -14.39,17.8 v 0.26 h 29.46 c 0,0.23 0.03,0.55 0.08,0.94 v 0.95 c 0,5.98 -1.5,10.6 -4.49,13.82 -3,3.23 -7.24,4.85 -12.71,4.85 z m 10.36,-17.56 h -22.53 c 0.17,4.53 1.37,8.2 3.61,11.02 2.22,2.64 4.96,3.96 8.21,3.96 3.31,0 5.92,-1.2 7.84,-3.57 1.91,-2.39 2.87,-5.71 2.87,-9.95 v -1.46 0"
         style="fill:#222123;fill-opacity:1;fill-rule:evenodd;stroke:none"
         id="path455" />
      <path
         d="m 1493.49,4015.9 c 0,0.91 0.08,1.74 0.26,2.49 -7.93,-0.18 -15.53,-0.27 -22.78,-0.27 -7.13,0 -13.96,0.09 -20.47,0.27 0.12,-1.15 0.18,-2.03 0.18,-2.66 0,-0.58 -0.06,-1.37 -0.18,-2.39 3.71,0.67 8.97,1.02 15.76,1.02 h 2.31 v -14.3 c 0,-11.08 -0.14,-24.46 -0.43,-40.16 0.97,0.12 2.34,0.17 4.12,0.17 1.76,0 3.04,-0.05 3.85,-0.17 -0.29,13.12 -0.43,24.88 -0.43,35.28 0,8.05 0.14,14.44 0.43,19.18 h 2.48 c 6.28,0 11.33,-0.35 15.16,-1.02 -0.18,0.85 -0.26,1.71 -0.26,2.56"
         style="fill:#222123;fill-opacity:1;fill-rule:evenodd;stroke:none"
         id="path457" />
    </g>
  </g>
</svg>
