<?xml version="1.0" encoding="UTF-8" standalone="no"?>
<!-- Created with Inkscape (http://www.inkscape.org/) -->

<svg
   version="1.1"
   id="svg189"
   width="86.375999"
   height="149.1427"
   viewBox="0 0 86.376003 149.14271"
   sodipodi:docname="logo-pwr-2016.eps"
   xmlns:inkscape="http://www.inkscape.org/namespaces/inkscape"
   xmlns:sodipodi="http://sodipodi.sourceforge.net/DTD/sodipodi-0.dtd"
   xmlns="http://www.w3.org/2000/svg"
   xmlns:svg="http://www.w3.org/2000/svg">
  <defs
     id="defs193" />
  <sodipodi:namedview
     id="namedview191"
     pagecolor="#ffffff"
     bordercolor="#000000"
     borderopacity="0.25"
     inkscape:showpageshadow="2"
     inkscape:pageopacity="0.0"
     inkscape:pagecheckerboard="0"
     inkscape:deskcolor="#d1d1d1"
     showgrid="false" />
  <g
     id="g197"
     inkscape:groupmode="layer"
     inkscape:label="Page 1"
     transform="matrix(1.3333333,0,0,-1.3333333,-61.573228,897.47169)">
    <g
       id="g199"
       transform="matrix(0.1,0,0,0.1,-78.41108,-85.054249)">
      <path
         d="m 1572.28,7406.68 c 5.07,-1.45 8.92,-3.66 13.64,-6.18 l -0.04,-140.75 h 0.01 v -20.65 l -0.01,0.01 v 20.64 c -59.26,1.93 -103.55,60.4 -108.97,115.05 h -1.21 c 1.46,-73.72 36.97,-131.05 110.18,-135.7 l -0.07,-240.64 h -0.1 c -5.02,11.78 -8.05,22.86 -9.49,31.44 -1.1,6.45 -1.47,12.11 -1.43,17.14 0.05,5 0.5,9.38 0.96,13.23 0.93,7.74 2.01,13.46 0.34,18.37 -2.38,1.39 -15.54,-15.21 -24.33,-16.56 -14.57,-2.28 -16.11,8.71 -26.84,12.81 7.87,2.97 13.72,2.39 20.6,5.91 5.95,3.07 10.12,9.37 16.72,11.26 4.54,1.32 9.85,0.8 15.49,-2.12 2,0 0.49,3.98 -1.27,9.21 -1.3,4.1 -3.27,9.11 -3.36,13.43 -0.08,3.84 1.4,7.17 4.63,9.28 -3.27,5.64 -5.35,11.3 -5.63,15.39 -0.68,9.42 2.42,14.34 2.05,21.1 -0.28,4.82 -0.19,11.82 -2.03,14.46 -7.09,-2.71 -18.8,-42.74 -19.73,-50.26 l -10.32,6.24 -6.4,-11.23 c -2.43,-4.26 9.87,-17 -3.29,-23.88 l -0.48,0.3 c 1.24,3.78 1.29,7.16 -1.62,10.96 -4.94,6.47 -11.66,1.87 -21.22,8.33 -4.92,5.67 -11.51,6.12 -15.81,4.32 -2.97,-1.23 -5.24,-3.56 -5.47,-8.05 l -0.59,-0.24 c -2.81,6.34 -0.31,11.33 3.61,14.46 9.64,7.71 33.43,-4.49 36.06,0 l 5.97,10.12 -10.19,6.43 c 25.7,18.38 25.82,49.83 23.85,78.52 l -1.63,0.84 c -4.2,-26.4 -15.72,-46.29 -34.02,-60.39 -6.87,-5.28 -15.39,-10.16 -24.78,-2.21 11.28,7.59 22.55,23.38 26.25,36.65 3.62,12.97 5.19,28.09 4.64,44.9 l -1.35,1.14 c -5.09,-29.35 -21.06,-44.34 -31.74,-52.08 -7.57,-5.5 -16.66,-10.49 -25,-2.96 12.28,10.06 21.8,23.29 26.74,37.07 5.14,14.43 6.82,30.36 5.45,46.41 l -1.17,1.52 c -6.41,-27.35 -13.13,-40.91 -28.8,-52.83 -7.87,-6 -16.89,-9.47 -25.83,-1.39 16.26,12.41 22.96,23.48 27.55,42.44 4.54,18.77 7.29,34.84 7.01,55.86 l -1.21,4.31 c -6.17,-34.9 -15.79,-56.6 -27.05,-66.21 -7.6,-6.49 -17.5,-11.3 -23.4,-4.28 7.53,8.61 12.29,18.02 14.81,28.17 5.19,20.77 4.08,38.09 3.68,65.93 -0.28,18.16 1.69,35.51 10.23,50.9 8.75,15.8 28.23,19.76 42.4,15.64 23.11,-6.98 29.06,-34.39 18.15,-51.36 -5.77,-8.96 -4.85,-20.46 -1.79,-26.09 3.76,-6.94 11.55,-14.07 19.14,-20.2 6.85,-5.51 26.37,-19.05 38.49,-17.1 -0.56,7.11 1.37,14.87 3.72,22.76 2.37,7.87 5.17,15.9 6.36,23.53 1.09,6.9 0.2,15.06 -3.35,19.78 -4.1,4.14 -8.28,6.15 -12.4,7.58 -5.31,1.86 -8.41,2.72 -11.51,6.95 -1.64,2.22 -2.19,6.41 -2.55,10.94 2.81,-3.04 5.01,-5.12 7.49,-6.41 2.27,-1.18 8.88,-3.06 10.92,-0.7 -2.16,4.78 -6.12,8.89 -10.88,11.21 -6.33,3.1 -12.32,1.83 -17,-3.16 -1.34,4.98 -0.51,10.97 3.5,14.64 4.18,3.83 12.87,2.44 17.5,-0.01 -0.58,3.63 1.35,7.17 6.59,7.69 3.58,0.35 7.24,-0.67 10.63,-1.63 z m -108.36,-43.66 c 4.04,0 7.36,3.49 7.36,7.79 0,4.27 -3.32,7.77 -7.36,7.77 -4.05,0 -7.35,-3.5 -7.35,-7.77 0,-4.3 3.3,-7.79 7.35,-7.79 z m 11.43,15.92 c 4.04,0 7.36,3.49 7.36,7.77 0,4.28 -3.32,7.79 -7.36,7.79 -4.06,0 -7.35,-3.51 -7.35,-7.79 0,-4.28 3.29,-7.77 7.35,-7.77 z m 13.52,-13.68 c 4.04,0 7.36,3.48 7.36,7.78 0,4.27 -3.32,7.76 -7.36,7.76 -4.07,0 -7.35,-3.49 -7.35,-7.76 0,-4.3 3.28,-7.78 7.35,-7.78 z m 86.23,27.51 c 2.18,-0.65 3.18,-1.55 3.34,-1.16 -1.07,2.2 -1.84,4.4 -3.65,6.11 -3.92,3.74 -15.77,6.34 -16.07,0.99 1.72,-0.82 3.4,-2.23 4.71,-3.7 1.92,-2.32 8.14,-1.17 11.67,-2.24 z m 33.32,2.24 c -1.94,-2.32 -8.16,-1.17 -11.68,-2.25 -2.16,-0.65 -3.18,-1.54 -3.32,-1.16 1.07,2.21 1.82,4.41 3.63,6.13 3.9,3.73 15.78,6.34 16.09,0.98 -1.73,-0.84 -3.39,-2.23 -4.72,-3.7 z m 88.07,-0.52 c 4.06,0 7.39,-3.49 7.39,-7.79 0,-4.28 -3.33,-7.76 -7.39,-7.76 -4.04,0 -7.34,3.48 -7.34,7.76 0,4.3 3.3,7.79 7.34,7.79 z m -110.51,-155.39 -0.03,20.65 c 59.26,1.92 103.59,60.39 108.99,115.05 h 1.2 c -1.46,-73.73 -36.97,-131.06 -110.16,-135.7 z m 121.96,123.92 c -4.08,0 -7.35,3.49 -7.35,7.76 0,4.3 3.27,7.8 7.35,7.8 4.05,0 7.35,-3.5 7.35,-7.8 0,-4.27 -3.3,-7.76 -7.35,-7.76 z m -24.95,17.78 c 4.05,0 7.35,-3.49 7.35,-7.76 0,-4.3 -3.3,-7.79 -7.35,-7.79 -4.07,0 -7.36,3.49 -7.36,7.79 0,4.27 3.29,7.76 7.36,7.76 z m -288.3,-382.34 h -1.79 l -39.36,487.12 h 0.93 c 6.79,-18.94 25.02,-23.74 40.22,-12.93 v -0.01 c 13.79,13.91 8.55,35.75 -9.55,43.38 v 0.76 l 400.96,-42.32 v -1.82 h -391.41 z m 486.09,583.12 12.95,-12.96 v -634.93 h -634.86 l -12.96,12.97 h 634.87 z m -308.23,-882.49 c 3.92,-4.07 9.04,-6.11 15.34,-6.11 5.52,0 10.62,1.7 15.3,5.12 v 1.09 c 0,0.71 0.06,1.85 0.17,3.41 -4.07,-4.02 -8.7,-6.02 -13.85,-6.02 -10.08,0 -15.12,6.24 -15.12,18.71 v 0.27 h 30.96 c 0,0.24 0.03,0.57 0.09,0.99 v 0.99 c 0,6.3 -1.58,11.15 -4.73,14.54 -3.15,3.39 -7.59,5.08 -13.37,5.08 -6.23,0 -11.24,-2.03 -15.02,-6.07 -3.78,-4.05 -5.66,-9.44 -5.66,-16.16 0,-6.48 1.96,-11.75 5.89,-15.84 z m 5.8,31.21 c 2.34,2.78 5.22,4.15 8.64,4.15 3.48,0 6.22,-1.25 8.23,-3.74 2.02,-2.51 3.01,-6 3.01,-10.46 v -1.54 h -23.65 c 0.16,4.77 1.43,8.63 3.77,11.59 z m -37.44,109.78 c -6.12,0 -11.2,-2.05 -15.24,-6.17 -4.05,-4.1 -6.09,-9.4 -6.09,-15.87 0,-6.54 2,-11.85 6,-15.93 3.98,-4.08 9.1,-6.12 15.33,-6.12 6.18,0 11.28,2.02 15.3,6.08 4.02,4.04 6.04,9.36 6.04,15.97 0,6.53 -1.99,11.84 -5.95,15.92 -3.95,4.08 -9.08,6.12 -15.39,6.12 z m 0,-41.39 c -9.06,0 -13.59,6.47 -13.59,19.44 0,12.83 4.51,19.25 13.51,19.25 9.12,0 13.67,-6.62 13.67,-19.89 0,-12.53 -4.52,-18.8 -13.59,-18.8 z m -45.79,-1.53 c 1.43,0 2.73,-0.12 3.87,-0.36 -0.3,4.5 -0.46,10.56 -0.46,18.18 0,6.24 0.74,10.82 2.21,13.77 1.48,2.93 3.88,4.41 7.24,4.41 1.38,0 2.82,-0.4 4.32,-1.18 l 0.72,0.45 c 0,3 0.14,5.28 0.46,6.83 -1.62,0.31 -2.77,0.47 -3.43,0.47 -4.25,0 -8,-3.46 -11.25,-10.36 0,3.72 0.19,7.02 0.55,9.89 -1.15,-0.23 -2.4,-0.34 -3.78,-0.34 -1.39,0 -2.67,0.11 -3.88,0.34 0.3,-3.22 0.46,-7.58 0.46,-13.04 0,-12.47 -0.16,-22.25 -0.46,-29.33 1.21,0.19 2.34,0.27 3.43,0.27 z m -13.18,-161.21 c 0,-6.72 3.98,-11.76 11.96,-15.12 l 7.29,-3.06 c 3.23,-1.38 5.5,-2.85 6.84,-4.41 1.49,-1.74 2.24,-4.05 2.24,-6.93 0,-4.08 -1.17,-7.31 -3.55,-9.68 -2.37,-2.36 -5.47,-3.55 -9.31,-3.55 -7.08,0 -12.02,3.57 -14.85,10.71 -0.24,-3.18 -0.9,-6.36 -1.98,-9.54 4.08,-3.18 9.12,-4.76 15.12,-4.76 6.47,0 11.67,1.77 15.56,5.33 3.91,3.57 5.85,8.26 5.85,14.06 0,3.85 -0.92,6.96 -2.79,9.36 -1.85,2.39 -4.88,4.49 -9.08,6.29 l -7.29,3.14 c -6.07,2.64 -9.09,6.29 -9.09,10.97 0,3.4 0.97,6.12 2.93,8.12 1.94,2.01 4.57,3.01 7.87,3.01 5.1,0 9.23,-2.28 12.41,-6.84 0.78,2.76 1.63,5.07 2.52,6.94 -4.38,2.21 -8.93,3.32 -13.68,3.32 -5.62,0 -10.2,-1.61 -13.71,-4.86 -3.52,-3.23 -5.26,-7.41 -5.26,-12.5 z m 27.4,99.94 c -1.32,0 -2.56,0.14 -3.7,0.38 0.3,-7.33 0.45,-14.05 0.45,-20.16 0,-6.66 -0.15,-14.11 -0.45,-22.32 1.39,0.29 2.61,0.45 3.7,0.45 1.13,0 2.36,-0.16 3.68,-0.45 -0.29,8.21 -0.45,15.66 -0.45,22.32 0,6.05 0.16,12.76 0.45,20.16 -1.02,-0.24 -2.24,-0.38 -3.68,-0.38 z m 3.23,19.22 c -0.9,0.86 -1.98,1.31 -3.23,1.31 -1.26,0 -2.35,-0.45 -3.25,-1.31 -0.89,-0.86 -1.34,-1.93 -1.34,-3.19 0,-1.27 0.45,-2.34 1.34,-3.24 0.9,-0.9 1.99,-1.35 3.25,-1.35 1.25,0 2.33,0.45 3.23,1.35 0.91,0.9 1.35,1.97 1.35,3.24 0,1.26 -0.44,2.33 -1.35,3.19 z m 30.88,-52.95 c -6.85,15.34 -11.26,26.71 -13.24,34.11 -1.25,-0.24 -2.68,-0.38 -4.23,-0.38 -1.5,0 -2.84,0.14 -4.04,0.38 9.1,-20.4 14.9,-34.56 17.37,-42.48 0.53,0.11 1.37,0.18 2.51,0.18 1.2,0 2.13,-0.07 2.79,-0.18 2.16,6.78 8.1,20.93 17.81,42.48 -0.77,-0.24 -1.7,-0.38 -2.79,-0.38 -1.02,0 -1.97,0.14 -2.87,0.38 -3.12,-11.59 -7.56,-22.95 -13.31,-34.11 z m 196.88,137.1 c -5.17,-15.34 -9.33,-26.29 -12.51,-32.83 -3.55,7.14 -7.3,18.08 -11.25,32.83 -0.9,-0.16 -1.77,-0.25 -2.61,-0.25 -0.9,0 -1.8,0.09 -2.7,0.25 -3.55,-12.34 -7.46,-23.32 -11.79,-32.93 -5.76,14.95 -9.51,25.92 -11.25,32.93 -1.2,-0.23 -2.55,-0.34 -4.05,-0.34 -1.44,0 -2.76,0.11 -3.96,0.34 8.88,-21.58 14.1,-35.74 15.66,-42.46 0.6,0.12 1.47,0.18 2.61,0.18 1.14,0 1.98,-0.06 2.53,-0.18 2.03,8.39 5.81,19.22 11.32,32.48 6.79,-17.94 10.48,-28.76 11.08,-32.48 0.9,0.18 1.77,0.28 2.61,0.28 0.9,0 1.8,-0.1 2.7,-0.28 1.79,6.72 7.5,20.88 17.1,42.46 -1.21,-0.1 -2.1,-0.16 -2.7,-0.16 -0.56,0 -1.48,0.06 -2.79,0.16 z m -37.4,-124.55 c -0.15,-5.44 -0.22,-8.6 -0.22,-9.49 0,-4.32 0.86,-7.46 2.61,-9.41 1.74,-1.95 4.68,-2.92 8.82,-2.92 3.48,0 6.74,1.01 9.81,3.04 l -0.63,2 c -2.65,-1.27 -4.74,-1.89 -6.3,-1.89 -2.76,0 -4.72,0.87 -5.86,2.65 -1.14,1.77 -1.7,4.67 -1.7,8.69 0,2.93 0.05,6.71 0.17,11.33 0.13,4.62 0.19,7.8 0.19,9.55 l 0.18,4.48 c 0.65,0.07 1.74,0.1 3.24,0.1 2.27,0 5.04,-0.1 8.27,-0.26 v 0.71 c 0,1.08 0.1,2.07 0.27,2.98 -4.49,-0.38 -8.4,-0.55 -11.69,-0.55 v 5.94 c 0,0.9 0.09,3.27 0.26,7.11 -1.97,-1.02 -4.37,-1.78 -7.19,-2.25 0.13,-3.12 0.17,-5.63 0.17,-7.56 v -2.97 c -1.92,0 -3.83,0.09 -5.75,0.28 0,-0.14 0.02,-0.38 0.09,-0.73 v -0.72 c 0,-0.48 -0.07,-1.26 -0.18,-2.34 1.62,0.18 3.17,0.26 4.68,0.26 h 0.99 v -3.05 c 0,-4.56 -0.08,-9.56 -0.23,-14.98 z m -212.49,6.34 c 0,10.73 -4.81,16.11 -14.4,16.11 -6,0 -10.7,-2.91 -14.13,-8.73 v 1.63 c -0.05,0.71 -0.09,1.25 -0.09,1.61 0,0.91 0.06,2.43 0.18,4.6 -0.96,-0.24 -2.13,-0.38 -3.5,-0.38 -1.33,0 -2.56,0.14 -3.7,0.38 0.24,-4.28 0.36,-11.08 0.36,-20.43 v -6.39 c 0,-7.08 -0.12,-12.3 -0.36,-15.66 1.38,0.29 2.62,0.45 3.7,0.45 1.13,0 2.39,-0.16 3.77,-0.45 -0.18,3.06 -0.27,8.66 -0.27,16.82 v 4.06 c 0,6.77 1.02,11.45 3.06,14.03 2.03,2.58 4.84,3.88 8.37,3.88 6.84,0 10.26,-4.45 10.26,-13.33 0,-10.67 -0.18,-19.17 -0.54,-25.46 1.38,0.29 2.61,0.45 3.69,0.45 1.08,0 2.31,-0.16 3.69,-0.45 -0.18,5.03 -0.28,9.78 -0.28,14.22 0,1.37 0.04,3.52 0.1,6.43 0.07,2.91 0.09,5.11 0.09,6.61 z m 190.67,27.63 c 0.91,-0.9 1.98,-1.35 3.25,-1.35 1.26,0 2.33,0.45 3.22,1.35 0.92,0.9 1.36,1.97 1.36,3.24 0,1.26 -0.44,2.33 -1.36,3.19 -0.89,0.86 -1.96,1.31 -3.22,1.31 -1.27,0 -2.34,-0.45 -3.25,-1.31 -0.9,-0.86 -1.34,-1.93 -1.34,-3.19 0,-1.27 0.44,-2.34 1.34,-3.24 z m 82.11,-136.13 c 0,0.24 0.03,0.56 0.1,0.99 v 0.99 c 0,6.3 -1.58,11.14 -4.73,14.53 -3.15,3.4 -7.6,5.09 -13.36,5.09 -6.25,0 -11.26,-2.02 -15.03,-6.08 -3.78,-4.05 -5.67,-9.43 -5.67,-16.15 0,-6.48 1.96,-11.76 5.9,-15.83 3.93,-4.08 9.04,-6.12 15.33,-6.12 5.53,0 10.63,1.71 15.3,5.12 v 1.08 c 0,0.72 0.07,1.86 0.19,3.43 -4.08,-4.03 -8.7,-6.03 -13.87,-6.03 -10.07,0 -15.11,6.23 -15.11,18.71 v 0.27 z m -26.99,14.73 c 2.34,2.78 5.22,4.17 8.64,4.17 3.48,0 6.22,-1.26 8.23,-3.76 2.01,-2.51 3.02,-5.99 3.02,-10.46 v -1.53 h -23.67 c 0.18,4.77 1.44,8.63 3.78,11.58 z m 25.87,108.61 c -1.15,0 -2.16,0.14 -3.06,0.38 -2.16,-7.03 -5.52,-15.81 -10.08,-26.38 l -3.24,-7.46 -3.16,7.73 c -4.85,11.94 -8.06,20.64 -9.62,26.11 -1.26,-0.24 -2.7,-0.38 -4.32,-0.38 -1.68,0 -3.14,0.14 -4.4,0.38 7.55,-16.87 12.24,-27.64 14.03,-32.31 l 3.79,-9.9 -2.07,-4.78 c -3.61,-8.33 -6.9,-15.02 -9.91,-20.06 1.08,0.18 2.13,0.28 3.15,0.28 1.08,0 2.1,-0.1 3.06,-0.28 1.09,4.26 3.81,11.33 8.2,21.24 l 12.05,27.26 c 3.9,8.82 6.75,15 8.55,18.55 -0.9,-0.24 -1.89,-0.38 -2.97,-0.38 z m -106.54,-39.5 c -4.38,0 -8.05,2.26 -10.98,6.76 -0.55,-2.36 -1.26,-4.65 -2.16,-6.93 3.05,-2.16 6.93,-3.24 11.61,-3.24 4.74,0 8.57,1.33 11.52,4 2.94,2.67 4.41,6.04 4.41,10.13 0,5.22 -2.88,8.66 -8.65,10.34 l -6.11,1.8 c -4.57,1.32 -6.85,3.84 -6.85,7.56 0,2.22 0.72,4.04 2.13,5.44 1.4,1.41 3.25,2.12 5.53,2.12 3.54,0 7.02,-1.98 10.45,-5.94 0.35,1.92 0.98,3.8 1.88,5.67 -3.18,1.98 -6.92,2.96 -11.26,2.96 -4.14,0 -7.47,-1.17 -9.98,-3.49 -2.52,-2.33 -3.78,-5.3 -3.78,-8.9 0,-3.16 0.77,-5.64 2.29,-7.45 1.54,-1.79 4,-3.17 7.43,-4.13 l 4.14,-1.16 c 4.73,-1.32 7.11,-3.77 7.11,-7.37 0,-2.5 -0.78,-4.5 -2.34,-5.97 -1.56,-1.46 -3.69,-2.2 -6.39,-2.2 z m -43.46,135.96 v -4.69 c 3.36,2.71 5.42,4.35 6.2,4.96 v -13.05 c 0,-8.23 -0.12,-15.81 -0.36,-22.77 1.2,0.18 2.4,0.28 3.6,0.28 1.26,0 2.56,-0.1 3.88,-0.28 -0.31,6.3 -0.45,19.73 -0.45,40.31 2.81,1.87 4.98,3.24 6.47,4.14 v 4.78 c -1.98,-1.75 -4.14,-3.45 -6.47,-5.13 v 0.99 c 0,8.51 0.14,15.98 0.45,22.4 -1.69,-0.12 -2.97,-0.18 -3.88,-0.18 -0.84,0 -2.03,0.06 -3.6,0.18 0.31,-6.24 0.45,-14.76 0.45,-25.55 v -2.35 c -2.15,-1.56 -4.26,-2.91 -6.29,-4.04 z m 11.52,-105.99 c 0,3.72 0.17,7.03 0.54,9.91 -1.15,-0.24 -2.41,-0.38 -3.79,-0.38 -1.37,0 -2.66,0.14 -3.86,0.38 0.29,-3.24 0.44,-7.6 0.44,-13.06 0,-12.48 -0.15,-22.25 -0.44,-29.33 1.2,0.18 2.33,0.27 3.41,0.27 1.44,0 2.75,-0.12 3.87,-0.36 -0.29,4.5 -0.45,10.55 -0.45,18.17 0,6.24 0.74,10.83 2.22,13.77 1.46,2.94 3.88,4.41 7.24,4.41 1.37,0 2.81,-0.39 4.31,-1.17 l 0.72,0.45 c 0,3 0.15,5.27 0.46,6.85 -1.62,0.29 -2.77,0.44 -3.43,0.44 -4.26,0 -8.01,-3.45 -11.24,-10.35 z m 60.74,9.53 c -1.33,0 -2.57,0.14 -3.7,0.38 0.31,-7.33 0.45,-14.05 0.45,-20.16 0,-6.66 -0.14,-14.11 -0.45,-22.32 1.38,0.29 2.62,0.45 3.7,0.45 1.13,0 2.36,-0.16 3.68,-0.45 -0.3,8.21 -0.46,15.66 -0.46,22.32 0,6.05 0.16,12.76 0.46,20.16 -1.02,-0.24 -2.24,-0.38 -3.68,-0.38 z m -91.7,101.31 c 5.64,0 9.71,-2.82 12.24,-8.45 0.65,2.93 1.47,5.51 2.43,7.74 -4.62,2.39 -9.51,3.59 -14.67,3.59 -6.72,0 -12.11,-2.01 -16.15,-6.03 -4.05,-4.01 -6.08,-9.38 -6.08,-16.1 0,-6.66 1.92,-12.01 5.76,-16.01 3.83,-4.03 8.91,-6.04 15.21,-6.04 6.42,0 11.54,1.49 15.39,4.5 -0.07,0.36 -0.09,0.95 -0.09,1.8 0,0.54 0.06,1.64 0.18,3.33 -4.27,-4.32 -8.79,-6.48 -13.59,-6.48 -4.74,0 -8.53,1.69 -11.38,5.08 -2.86,3.39 -4.28,8.02 -4.28,13.91 0,6.12 1.32,10.83 3.96,14.17 2.64,3.33 6.33,4.99 11.07,4.99 z m 65.32,-16.46 c -3.35,-0.66 -6.69,-1.33 -9.98,-1.98 -6.96,-1.51 -10.44,-5.4 -10.44,-11.71 0,-7.37 4.14,-11.06 12.43,-11.06 5.09,0 9.56,2.01 13.39,6.02 0.55,-3.47 2.2,-5.21 4.96,-5.21 1.67,0 4.14,0.48 7.38,1.44 l -0.36,1.8 c -0.36,-0.06 -0.86,-0.09 -1.53,-0.09 -1.8,0 -2.97,0.59 -3.51,1.8 -0.31,0.71 -0.45,2.09 -0.45,4.13 l 0.35,17.91 v 1.08 c 0,5.22 -1.1,9.04 -3.32,11.48 -2.23,2.43 -5.85,3.64 -10.89,3.64 -5.64,0 -10.47,-1.68 -14.49,-5.04 l -0.18,-4.76 h 0.72 c 2.82,4.25 6.69,6.38 11.61,6.38 3.6,0 6.16,-0.95 7.7,-2.88 1.52,-1.93 2.29,-4.88 2.29,-8.9 v -1.9 c -0.96,-0.83 -2.85,-1.56 -5.68,-2.15 z m 5.5,-13.23 c 0,-1.57 -0.52,-2.85 -1.53,-3.87 -2.64,-2.64 -5.65,-3.96 -9.01,-3.96 -5.33,0 -7.99,2.85 -7.99,8.55 0,3.36 1.46,5.79 4.4,7.29 2.33,1.2 7.05,2.39 14.13,3.6 z m -86.53,-194.42 c 0,6.06 0.16,12.78 0.46,20.14 -1.03,-0.23 -2.25,-0.34 -3.69,-0.34 -1.33,0 -2.56,0.11 -3.7,0.34 0.3,-7.3 0.45,-14.02 0.45,-20.14 0,-6.66 -0.15,-14.1 -0.45,-22.32 1.39,0.3 2.61,0.45 3.7,0.45 1.13,0 2.36,-0.15 3.69,-0.45 -0.3,8.22 -0.46,15.66 -0.46,22.32 z m 114.77,-82.05 c -6.1,0 -11.19,-2.05 -15.25,-6.16 -4.04,-4.11 -6.07,-9.4 -6.07,-15.89 0,-6.54 2,-11.85 5.99,-15.92 3.99,-4.08 9.1,-6.12 15.33,-6.12 6.19,0 11.3,2.03 15.31,6.07 4.02,4.05 6.03,9.38 6.03,15.97 0,6.54 -1.99,11.85 -5.94,15.93 -3.96,4.08 -9.09,6.12 -15.4,6.12 z m 0,-41.38 c -9.04,0 -13.59,6.47 -13.59,19.42 0,12.84 4.51,19.27 13.51,19.27 9.12,0 13.68,-6.63 13.68,-19.89 0,-12.55 -4.52,-18.8 -13.6,-18.8 z m -31.48,18.75 c 0.06,2.92 0.09,5.11 0.09,6.62 0,10.73 -4.8,16.1 -14.4,16.1 -6,0 -10.71,-2.91 -14.12,-8.73 v 1.62 c -0.07,0.71 -0.1,1.26 -0.1,1.63 0,0.89 0.05,2.42 0.18,4.58 -0.96,-0.23 -2.12,-0.36 -3.51,-0.36 -1.31,0 -2.55,0.13 -3.68,0.36 0.23,-4.25 0.36,-11.07 0.36,-20.42 v -6.4 c 0,-7.07 -0.13,-12.29 -0.36,-15.64 1.37,0.29 2.6,0.44 3.68,0.44 1.14,0 2.41,-0.15 3.78,-0.44 -0.18,3.05 -0.27,8.65 -0.27,16.82 v 4.05 c 0,6.77 1.02,11.45 3.07,14.03 2.02,2.59 4.82,3.87 8.36,3.87 6.84,0 10.26,-4.44 10.26,-13.31 0,-10.68 -0.18,-19.17 -0.54,-25.46 1.37,0.29 2.6,0.44 3.69,0.44 1.08,0 2.3,-0.15 3.7,-0.44 -0.19,5.03 -0.28,9.77 -0.28,14.2 0,1.39 0.03,3.53 0.09,6.44 z m 12.36,96.58 c 0,1.38 0.04,3.52 0.1,6.43 0.07,2.91 0.09,5.12 0.09,6.62 0,10.73 -4.81,16.11 -14.4,16.11 -6,0 -10.71,-2.91 -14.13,-8.73 v 1.61 c -0.06,0.73 -0.09,1.27 -0.09,1.63 0,0.9 0.05,2.43 0.19,4.57 -0.97,-0.23 -2.13,-0.34 -3.52,-0.34 -1.31,0 -2.55,0.11 -3.69,0.34 0.25,-4.24 0.36,-11.05 0.36,-20.41 v -6.39 c 0,-7.08 -0.11,-12.29 -0.36,-15.66 1.38,0.3 2.61,0.45 3.69,0.45 1.14,0 2.4,-0.15 3.78,-0.45 -0.18,3.06 -0.26,8.68 -0.26,16.83 v 4.04 c 0,6.79 1.01,11.47 3.06,14.05 2.03,2.58 4.82,3.87 8.36,3.87 6.84,0 10.26,-4.44 10.26,-13.32 0,-10.68 -0.18,-19.17 -0.54,-25.47 1.38,0.3 2.61,0.45 3.68,0.45 1.09,0 2.32,-0.15 3.7,-0.45 -0.18,5.04 -0.28,9.78 -0.28,14.22 z m -61.63,-11.42 c -10.08,0 -15.13,6.23 -15.13,18.71 v 0.27 h 30.97 c 0,0.24 0.03,0.56 0.09,0.99 v 0.99 c 0,6.3 -1.58,11.14 -4.72,14.53 -3.15,3.4 -7.61,5.09 -13.37,5.09 -6.24,0 -11.25,-2.02 -15.03,-6.08 -3.78,-4.05 -5.67,-9.43 -5.67,-16.15 0,-6.48 1.96,-11.76 5.89,-15.83 3.94,-4.08 9.05,-6.12 15.35,-6.12 5.53,0 10.62,1.71 15.29,5.12 v 1.08 c 0,0.72 0.06,1.86 0.19,3.43 -4.08,-4.03 -8.7,-6.03 -13.86,-6.03 z m -11.16,33.71 c 2.33,2.78 5.22,4.17 8.64,4.17 3.48,0 6.22,-1.26 8.24,-3.76 2,-2.51 3.01,-5.99 3.01,-10.46 v -1.53 h -23.67 c 0.18,4.77 1.44,8.63 3.78,11.58 z m 11.25,-118.24 c 0.09,3.09 0.14,5.21 0.14,6.35 0,10.43 -4.82,15.65 -14.44,15.65 -5.66,0 -10.33,-2.72 -14,-8.19 -0.12,5.76 -0.18,9.87 -0.18,12.34 0,6.65 0.13,13.34 0.36,20.06 -1.54,-0.24 -2.75,-0.36 -3.64,-0.36 -0.71,0 -1.97,0.12 -3.74,0.36 0.3,-11.82 0.45,-23.07 0.45,-33.74 0,-8.94 -0.15,-20.19 -0.45,-33.74 1.31,0.29 2.49,0.44 3.56,0.44 1.12,0 2.37,-0.15 3.73,-0.44 -0.17,4.85 -0.27,8.36 -0.27,10.52 v 6.39 c 0,8.28 0.61,13.59 1.8,15.91 2.05,3.98 5.28,5.95 9.68,5.95 3.73,0 6.37,-1.18 7.94,-3.55 1.56,-2.37 2.36,-6.13 2.36,-11.29 0,-4.98 -0.16,-12.96 -0.45,-23.93 1.37,0.29 2.61,0.44 3.69,0.44 1.14,0 2.36,-0.15 3.69,-0.44 -0.24,8.03 -0.36,12.62 -0.36,13.76 0,1.91 0.04,4.42 0.13,7.51 z m 212.5,-17.59 c -2.7,1.62 -7.23,2.42 -13.59,2.42 h -3.42 c -1.13,-0.05 -1.68,-0.08 -1.62,-0.08 -4.67,0 -7.02,1.65 -7.02,4.95 0,2.82 1.42,4.22 4.22,4.22 0.32,0 1.02,-0.05 2.13,-0.17 1.11,-0.12 2.05,-0.18 2.83,-0.18 5.04,0 9.02,1.27 11.93,3.82 2.91,2.54 4.36,6.08 4.36,10.57 0,3.73 -1.17,7.15 -3.51,10.27 h 1.8 c 1.74,0 3.6,-0.1 5.58,-0.27 v 3.95 c -4.27,-0.48 -7.17,-0.72 -8.73,-0.72 -0.78,0 -2.33,0.17 -4.63,0.5 -2.33,0.33 -4.28,0.49 -5.9,0.49 -5.52,0 -9.88,-1.38 -13.09,-4.13 -3.21,-2.77 -4.82,-6.43 -4.82,-10.98 0,-6.13 3,-10.15 9.01,-12.06 -4.75,-2.4 -7.11,-5.19 -7.11,-8.38 0,-4.01 2.28,-6.53 6.83,-7.55 -6.66,-2.22 -9.99,-6.27 -9.99,-12.15 0,-3.9 1.45,-7.03 4.37,-9.4 2.91,-2.38 6.88,-3.56 11.92,-3.56 6.91,0 12.45,1.73 16.65,5.18 4.2,3.45 6.3,7.93 6.3,13.45 0,4.69 -1.5,7.95 -4.5,9.81 z m -26.28,25.37 c 0,3.54 0.94,6.41 2.78,8.6 1.85,2.18 4.27,3.29 7.26,3.29 6.21,0 9.32,-3.98 9.32,-11.89 0,-7.92 -3.11,-11.87 -9.32,-11.87 -3.11,0 -5.56,1.03 -7.35,3.09 -1.8,2.08 -2.69,5.01 -2.69,8.78 z m 20.3,-47.56 c -2.86,-2.36 -6.53,-3.55 -11.03,-3.55 -3.71,0 -6.72,1.05 -8.99,3.15 -2.29,2.09 -3.42,4.83 -3.42,8.18 0,5.35 2.64,8.86 7.92,10.54 1.31,0.11 2.24,0.19 2.78,0.19 6.36,0 10.68,-0.55 12.96,-1.63 2.71,-1.32 4.05,-3.93 4.05,-7.83 0,-3.65 -1.43,-6.67 -4.27,-9.05 z m -243.86,175.06 c 1.26,0 2.33,0.44 3.23,1.34 0.91,0.9 1.35,1.99 1.35,3.25 0,1.25 -0.44,2.32 -1.35,3.18 -0.9,0.88 -1.97,1.32 -3.23,1.32 -1.26,0 -2.35,-0.44 -3.25,-1.32 -0.89,-0.86 -1.34,-1.93 -1.34,-3.18 0,-1.26 0.45,-2.35 1.34,-3.25 0.9,-0.9 1.99,-1.34 3.25,-1.34 z m 289.53,-114.09 c -2.17,-7.02 -5.53,-15.8 -10.09,-26.36 l -3.23,-7.48 -3.15,7.75 c -4.87,11.94 -8.07,20.64 -9.64,26.09 -1.26,-0.23 -2.69,-0.36 -4.31,-0.36 -1.68,0 -3.15,0.13 -4.41,0.36 7.56,-16.86 12.23,-27.62 14.04,-32.3 l 3.78,-9.9 -2.07,-4.77 c -3.6,-8.34 -6.9,-15.02 -9.9,-20.07 1.08,0.18 2.13,0.27 3.15,0.27 1.07,0 2.09,-0.09 3.05,-0.27 1.1,4.27 3.82,11.34 8.19,21.25 l 12.06,27.26 c 3.9,8.82 6.75,14.99 8.55,18.53 -0.9,-0.23 -1.89,-0.36 -2.97,-0.36 -1.14,0 -2.16,0.13 -3.05,0.36 z m -382.81,328.03 c -4.49,-17.64 -9.71,-34.98 -15.65,-52.01 -6.25,17.39 -12,34.73 -17.28,52.01 -0.9,-0.24 -1.89,-0.36 -2.97,-0.36 -1.02,0 -1.98,0.12 -2.88,0.36 -5.03,-18.18 -10.68,-35.81 -16.91,-52.91 -5.47,17.1 -10.65,34.73 -15.58,52.91 -1.25,-0.24 -2.7,-0.36 -4.31,-0.36 -1.62,0 -3.06,0.12 -4.32,0.36 8.21,-25.68 14.64,-46.16 19.25,-61.46 1.2,0.3 2.26,0.45 3.16,0.45 0.9,0 1.94,-0.15 3.15,-0.45 l 16.82,50.3 c 6.62,-18.29 12.12,-35.09 16.56,-50.39 0.9,0.3 1.98,0.45 3.24,0.45 1.14,0 2.19,-0.12 3.15,-0.36 9.83,29.7 16.67,50.18 20.51,61.46 -0.9,-0.24 -1.92,-0.36 -3.05,-0.36 -1.03,0 -1.98,0.12 -2.89,0.36 z m 281.39,-327.22 c -6.11,0 -11.2,-2.05 -15.25,-6.16 -4.06,-4.11 -6.08,-9.4 -6.08,-15.89 0,-6.54 2,-11.85 5.99,-15.92 3.99,-4.08 9.1,-6.12 15.34,-6.12 6.18,0 11.28,2.03 15.31,6.07 4,4.05 6.01,9.38 6.01,15.97 0,6.54 -1.97,11.85 -5.93,15.93 -3.95,4.08 -9.09,6.12 -15.39,6.12 z m 0,-41.38 c -9.06,0 -13.59,6.47 -13.59,19.42 0,12.84 4.5,19.27 13.5,19.27 9.12,0 13.68,-6.63 13.68,-19.89 0,-12.55 -4.54,-18.8 -13.59,-18.8 z m -35.18,65.42 c -0.85,0 -2.03,0.05 -3.61,0.17 0.25,-3.3 0.37,-9.18 0.37,-17.64 v -23.57 c 0,-13.51 -0.12,-22.26 -0.37,-26.27 1.21,0.17 2.4,0.26 3.61,0.26 1.26,0 2.55,-0.09 3.86,-0.26 -0.29,6.53 -0.45,19.78 -0.45,39.77 0,12.95 0.16,22.2 0.45,27.71 -1.67,-0.12 -2.97,-0.17 -3.86,-0.17 z m -21.65,76.09 c 5.65,0 9.72,-2.82 12.24,-8.45 0.67,2.94 1.48,5.52 2.43,7.74 -4.62,2.4 -9.51,3.59 -14.67,3.59 -6.72,0 -12.09,-2 -16.15,-6.02 -4.05,-4.02 -6.07,-9.39 -6.07,-16.11 0,-6.66 1.91,-12 5.76,-16.01 3.84,-4.03 8.91,-6.04 15.21,-6.04 6.41,0 11.54,1.5 15.38,4.5 -0.06,0.35 -0.09,0.96 -0.09,1.8 0,0.54 0.06,1.65 0.18,3.34 -4.25,-4.33 -8.79,-6.49 -13.59,-6.49 -4.74,0 -8.54,1.69 -11.38,5.08 -2.85,3.39 -4.28,8.03 -4.28,13.91 0,6.12 1.32,10.84 3.97,14.17 2.63,3.33 6.32,4.99 11.06,4.99 z m -343.96,-122.76 c 0.05,2.92 0.09,5.11 0.09,6.62 0,10.73 -4.81,16.1 -14.4,16.1 -6,0 -10.7,-2.91 -14.13,-8.73 v 1.62 c -0.05,0.71 -0.09,1.26 -0.09,1.63 0,0.89 0.06,2.42 0.18,4.58 -0.97,-0.23 -2.13,-0.36 -3.5,-0.36 -1.33,0 -2.56,0.13 -3.7,0.36 0.24,-4.25 0.36,-11.07 0.36,-20.42 v -6.4 c 0,-7.07 -0.12,-12.29 -0.36,-15.64 1.38,0.29 2.61,0.44 3.7,0.44 1.14,0 2.4,-0.15 3.77,-0.44 -0.18,3.05 -0.27,8.65 -0.27,16.82 v 4.05 c 0,6.77 1.03,11.45 3.05,14.03 2.05,2.59 4.85,3.87 8.38,3.87 6.84,0 10.25,-4.44 10.25,-13.31 0,-10.68 -0.18,-19.17 -0.53,-25.46 1.38,0.29 2.61,0.44 3.69,0.44 1.08,0 2.3,-0.15 3.69,-0.44 -0.18,5.03 -0.28,9.77 -0.28,14.2 0,1.39 0.04,3.53 0.1,6.44 z m 50.84,46.84 c -1.44,-0.42 -2.71,-0.63 -3.78,-0.63 -1.02,0 -2.31,0.21 -3.87,0.63 0.18,-5.22 0.27,-10.65 0.27,-16.29 v -6.3 c -0.06,-3.6 -0.09,-6.9 -0.09,-9.89 -3.31,5.51 -8.04,8.27 -14.21,8.27 -5.59,0 -10.16,-2.08 -13.73,-6.25 -3.57,-4.17 -5.36,-9.67 -5.36,-16.52 0,-6.47 1.67,-11.65 5,-15.52 3.33,-3.87 7.69,-5.8 13.1,-5.8 6.95,0 12.08,3.17 15.37,9.54 0.07,-0.78 0.1,-1.92 0.1,-3.42 0,-1.27 -0.06,-3.02 -0.18,-5.3 1.38,0.29 2.64,0.44 3.78,0.44 1.14,0 2.4,-0.15 3.78,-0.44 -0.36,11.51 -0.54,24.38 -0.54,38.59 0,12.12 0.12,21.75 0.36,28.89 z m -10.84,-59.8 c -2.37,-3.4 -5.73,-5.08 -10.04,-5.08 -3.91,0 -6.95,1.58 -9.13,4.73 -2.19,3.14 -3.29,7.63 -3.29,13.44 0,6.13 1.19,10.84 3.56,14.13 2.37,3.31 5.65,4.95 9.86,4.95 3.95,0 7.04,-1.5 9.26,-4.49 2.21,-3.02 3.32,-7.29 3.32,-12.87 0,-6.48 -1.18,-11.42 -3.54,-14.81 z m 1.71,138.6 c -6.12,0 -11.21,-2.05 -15.25,-6.17 -4.05,-4.1 -6.08,-9.39 -6.08,-15.87 0,-6.54 1.99,-11.85 5.98,-15.92 3.99,-4.08 9.11,-6.12 15.35,-6.12 6.17,0 11.26,2.02 15.29,6.07 4.03,4.04 6.04,9.37 6.04,15.97 0,6.54 -1.99,11.84 -5.95,15.93 -3.96,4.07 -9.08,6.11 -15.38,6.11 z m 0,-41.39 c -9.07,0 -13.59,6.48 -13.59,19.44 0,12.84 4.5,19.25 13.5,19.25 9.12,0 13.68,-6.62 13.68,-19.88 0,-12.54 -4.55,-18.81 -13.59,-18.81 z m -14.89,127.04 c 0,-9.36 2.03,-16.21 6.1,-20.56 4.09,-4.35 10.6,-6.53 19.54,-6.53 10.5,0 17.82,3.57 21.95,10.72 1.62,2.87 2.7,7.17 3.25,12.86 0.29,3.79 0.44,10.56 0.44,20.35 v 2.33 c 0,3.18 0.16,8.63 0.46,16.37 -0.9,-0.23 -1.89,-0.36 -2.97,-0.36 -0.96,0 -1.89,0.13 -2.79,0.36 0.23,-8.63 0.35,-18.02 0.35,-28.16 0,-6.59 -0.21,-11.31 -0.62,-14.12 -0.61,-4.21 -1.87,-7.51 -3.78,-9.91 -3.38,-4.2 -8.34,-6.29 -14.89,-6.29 -6.5,0 -11.43,2.03 -14.79,6.11 -1.99,2.41 -3.29,5.52 -3.88,9.36 -0.43,2.34 -0.63,5.79 -0.63,10.34 l 0.35,32.77 c -1.19,-0.3 -2.59,-0.46 -4.19,-0.46 -1.41,0 -2.72,0.13 -3.9,0.36 0.17,-6.47 0.26,-12.14 0.26,-17 0,-3.72 -0.04,-7.66 -0.13,-11.79 -0.09,-4.14 -0.13,-6.38 -0.13,-6.75 z m 164.67,-191.53 c 5.63,0 9.72,-2.82 12.23,-8.47 0.66,2.95 1.48,5.52 2.43,7.74 -4.62,2.4 -9.51,3.6 -14.66,3.6 -6.72,0 -12.11,-2.01 -16.16,-6.02 -4.05,-4.03 -6.07,-9.4 -6.07,-16.12 0,-6.65 1.92,-11.99 5.76,-16.01 3.84,-4.02 8.9,-6.03 15.2,-6.03 6.42,0 11.56,1.5 15.4,4.49 -0.07,0.37 -0.1,0.97 -0.1,1.81 0,0.54 0.06,1.64 0.19,3.33 -4.27,-4.32 -8.79,-6.48 -13.59,-6.48 -4.75,0 -8.54,1.7 -11.38,5.09 -2.85,3.38 -4.28,8.02 -4.28,13.89 0,6.13 1.31,10.86 3.96,14.19 2.64,3.32 6.33,4.99 11.07,4.99 z m -237.66,-37.26 c -1.79,0 -2.97,0.61 -3.51,1.8 -0.31,0.72 -0.44,2.09 -0.44,4.14 l 0.35,17.91 v 1.08 c 0,5.22 -1.1,9.04 -3.32,11.47 -2.23,2.43 -5.86,3.64 -10.9,3.64 -5.63,0 -10.46,-1.68 -14.48,-5.03 l -0.18,-4.78 h 0.72 c 2.82,4.27 6.68,6.4 11.61,6.4 3.6,0 6.16,-0.97 7.7,-2.89 1.53,-1.91 2.28,-4.88 2.28,-8.9 v -1.9 c -0.95,-0.84 -2.85,-1.56 -5.66,-2.15 -3.37,-0.67 -6.69,-1.32 -9.99,-1.99 -6.96,-1.49 -10.45,-5.39 -10.45,-11.69 0,-7.38 4.15,-11.07 12.43,-11.07 5.1,0 9.57,2.01 13.42,6.04 0.53,-3.49 2.19,-5.22 4.93,-5.22 1.67,0 4.15,0.47 7.38,1.43 l -0.36,1.79 c -0.36,-0.05 -0.86,-0.08 -1.53,-0.08 z m -10.35,7.56 c 0,-1.56 -0.5,-2.85 -1.52,-3.87 -2.64,-2.64 -5.64,-3.96 -9,-3.96 -5.34,0 -8.01,2.84 -8.01,8.55 0,3.36 1.47,5.79 4.41,7.29 2.34,1.2 7.05,2.4 14.12,3.6 z m 201.03,32.66 c 5.75,0 10.21,-1.69 13.36,-5.08 3.16,-3.39 4.73,-8.23 4.73,-14.54 v -0.99 c -0.06,-0.41 -0.09,-0.74 -0.09,-0.98 h -30.96 v -0.28 c 0,-12.47 5.04,-18.71 15.12,-18.71 5.16,0 9.78,2.01 13.86,6.03 -0.12,-1.56 -0.18,-2.71 -0.18,-3.42 v -1.08 c -4.68,-3.43 -9.78,-5.13 -15.3,-5.13 -6.3,0 -11.41,2.04 -15.33,6.12 -3.93,4.07 -5.9,9.35 -5.9,15.83 0,6.72 1.88,12.11 5.66,16.17 3.79,4.03 8.79,6.06 15.03,6.06 z m 10.89,-18.44 h -23.67 c 0.18,4.76 1.45,8.62 3.78,11.57 2.34,2.79 5.23,4.17 8.65,4.17 3.47,0 6.22,-1.25 8.23,-3.76 2,-2.5 3.01,-5.99 3.01,-10.44 z m -65.82,116.33 v 3.69 c -2.29,-0.13 -4.05,-0.18 -5.31,-0.18 -0.42,0 -1.09,0.03 -1.98,0.08 h -1.99 c -0.47,5.04 -0.71,8.79 -0.71,11.25 0,5.58 2.54,8.38 7.65,8.38 1.92,0 3.63,-0.37 5.13,-1.09 l 0.9,7.02 c -0.42,0.06 -1.02,0.09 -1.8,0.09 -5.17,0 -9.31,-2.22 -12.41,-6.66 -3.25,-4.62 -4.89,-10.94 -4.97,-18.99 h -1.16 c -0.54,-0.05 -0.96,-0.08 -1.26,-0.08 -0.72,0 -1.98,0.05 -3.77,0.18 v -3.42 c 2.63,0.12 4.63,0.18 6.03,0.18 v -11.34 c 0,-14.46 -0.22,-23.58 -0.64,-27.36 1.5,0.3 2.82,0.45 3.96,0.45 1.26,0 2.58,-0.15 3.96,-0.45 -0.49,5.94 -0.72,18.83 -0.72,38.7 5.7,-0.31 8.72,-0.45 9.09,-0.45 z m 109.79,-34.65 c -0.07,0.35 -0.1,0.96 -0.1,1.8 0,0.54 0.06,1.65 0.16,3.34 -4.25,-4.33 -8.77,-6.49 -13.58,-6.49 -4.73,0 -8.52,1.69 -11.37,5.08 -2.86,3.39 -4.28,8.03 -4.28,13.91 0,6.12 1.32,10.84 3.97,14.17 2.63,3.33 6.32,4.99 11.05,4.99 5.65,0 9.73,-2.82 12.25,-8.45 0.66,2.94 1.47,5.52 2.43,7.74 -4.63,2.4 -9.5,3.59 -14.68,3.59 -6.71,0 -12.1,-2 -16.14,-6.02 -4.06,-4.02 -6.08,-9.39 -6.08,-16.11 0,-6.66 1.92,-12 5.76,-16.01 3.84,-4.03 8.91,-6.04 15.21,-6.04 6.43,0 11.55,1.5 15.4,4.5 z m -70.42,-47.76 c 0,0.96 0.09,1.83 0.26,2.62 -8.34,-0.19 -16.31,-0.28 -23.93,-0.28 -7.5,0 -14.67,0.09 -21.51,0.28 0.12,-1.22 0.18,-2.13 0.18,-2.8 0,-0.6 -0.06,-1.44 -0.18,-2.52 3.9,0.72 9.42,1.08 16.56,1.08 h 2.42 v -15.02 c 0,-11.64 -0.14,-25.71 -0.44,-42.2 1.02,0.11 2.46,0.17 4.32,0.17 1.86,0 3.2,-0.06 4.05,-0.17 -0.3,13.79 -0.45,26.14 -0.45,37.07 0,8.45 0.15,15.17 0.45,20.15 h 2.61 c 6.59,0 11.91,-0.36 15.92,-1.08 -0.17,0.9 -0.26,1.8 -0.26,2.7 z m 96.05,451.85 h 0.13 c 196.83,65.82 198.29,341.4 199.91,429.7 H 1585.9 l 0.02,-27.66 c 4.72,2.52 8.58,4.73 13.65,6.17 3.38,0.96 7.05,1.99 10.63,1.64 5.23,-0.52 7.17,-4.06 6.6,-7.69 4.6,2.45 13.32,3.84 17.51,0 4.01,-3.66 4.82,-9.66 3.49,-14.63 -4.67,4.99 -10.67,6.25 -17.02,3.15 -4.76,-2.33 -8.71,-6.42 -10.88,-11.19 2.06,-2.37 8.65,-0.48 10.93,0.69 2.48,1.29 4.68,3.37 7.48,6.41 -0.36,-4.53 -0.9,-8.72 -2.53,-10.95 -3.11,-4.22 -6.22,-5.09 -11.54,-6.94 -4.13,-1.43 -8.29,-3.44 -12.38,-7.58 -3.53,-4.72 -4.45,-12.87 -3.36,-19.78 1.19,-7.62 3.99,-15.67 6.37,-23.53 2.34,-7.89 4.28,-15.65 3.71,-22.76 12.15,-1.95 31.66,11.57 38.5,17.1 7.58,6.12 15.39,13.26 19.14,20.19 3.07,5.64 3.96,17.13 -1.81,26.1 -10.88,16.97 -4.94,44.37 18.18,51.36 14.17,4.12 33.64,0.16 42.4,-15.64 8.52,-15.39 10.48,-32.74 10.22,-50.9 -0.39,-27.84 -1.49,-45.16 3.66,-65.93 2.55,-10.16 7.3,-19.56 14.83,-28.17 -5.93,-7.02 -15.79,-2.21 -23.4,4.28 -11.26,9.61 -20.88,31.31 -27.06,66.21 l -1.18,-4.31 c -0.29,-21.02 2.45,-37.08 6.98,-55.86 4.62,-18.96 11.28,-30.03 27.55,-42.44 -8.91,-8.08 -17.95,-4.61 -25.83,1.39 -15.63,11.92 -22.41,25.48 -28.79,52.83 l -1.19,-1.52 c -1.36,-16.05 0.32,-31.98 5.48,-46.41 4.92,-13.78 14.46,-27.01 26.73,-37.07 -8.33,-7.53 -17.42,-2.54 -24.99,2.96 -10.7,7.74 -26.66,22.72 -31.76,52.07 l -1.35,-1.13 c -0.53,-16.83 1.02,-31.94 4.66,-44.91 3.71,-13.26 14.95,-29.05 26.25,-36.65 -9.4,-7.94 -17.91,-3.07 -24.78,2.22 -18.32,14.1 -29.81,33.98 -34.03,60.39 l -1.63,-0.84 c -1.96,-28.69 -1.85,-60.15 23.85,-78.53 l -10.2,-6.43 5.98,-10.11 c 2.62,-4.49 26.41,7.71 36.08,0 3.88,-3.13 6.42,-8.12 3.61,-14.46 l -0.58,0.24 c -0.27,4.49 -2.54,6.82 -5.49,8.05 -4.3,1.8 -10.89,1.34 -15.83,-4.32 -9.54,-6.47 -16.29,-1.86 -21.2,-8.33 -2.94,-3.8 -2.86,-7.18 -1.63,-10.97 l -0.49,-0.29 c -13.14,6.88 -0.85,19.62 -3.29,23.88 l -6.42,11.23 -10.29,-6.24 c -0.92,7.52 -12.66,47.55 -19.72,50.26 -1.86,-2.64 -1.75,-9.64 -2.04,-14.47 -0.37,-6.75 2.73,-11.67 2.04,-21.09 -0.28,-4.09 -2.35,-9.76 -5.62,-15.39 3.23,-2.11 4.69,-5.43 4.61,-9.28 -0.09,-4.32 -2.03,-9.33 -3.37,-13.43 -1.72,-5.23 -3.22,-9.25 -1.24,-9.25 5.65,2.95 10.92,3.48 15.49,2.16 6.58,-1.89 10.77,-8.19 16.72,-11.26 6.87,-3.54 12.72,-2.94 20.58,-5.91 -10.72,-4.1 -12.26,-15.09 -26.83,-12.82 -8.79,1.36 -21.93,17.93 -24.32,16.57 -1.68,-4.91 -0.6,-10.64 0.34,-18.37 0.47,-3.85 0.92,-8.23 0.95,-13.23 0.04,-5.03 -0.31,-10.69 -1.4,-17.14 -1.49,-8.6 -4.6,-19.64 -9.61,-31.44 v 0"
         style="fill:#918f90;fill-opacity:1;fill-rule:evenodd;stroke:none"
         id="path459" />
    </g>
  </g>
</svg>
